<?xml version="1.0" encoding="UTF-8"?>
<svg version="1.1" xmlns="http://www.w3.org/2000/svg" width="331" height="314">
<path d="M0 0 C1.1875 2.1875 1.1875 2.1875 2 5 C0.79614729 7.94275108 -0.03975141 9.53536359 -2.9375 10.9375 C-5.70314872 11.02130754 -6.84649645 10.78220984 -9 9 C-10.58823529 3.17647059 -10.58823529 3.17647059 -9 0 C-5.88291635 -1.55854182 -3.3141692 -0.68784644 0 0 Z " fill="#ff0000" transform="translate(285,303)"/>
<path d="M0 0 C1.1875 2.1875 1.1875 2.1875 2 5 C0.79614729 7.94275108 -0.03975141 9.53536359 -2.9375 10.9375 C-5.70314872 11.02130754 -6.84649645 10.78220984 -9 9 C-10.58823529 3.17647059 -10.58823529 3.17647059 -9 0 C-5.88291635 -1.55854182 -3.3141692 -0.68784644 0 0 Z " fill="#ff0000" transform="translate(230,303)"/>
<path d="M0 0 C1.1875 2.1875 1.1875 2.1875 2 5 C0.79614729 7.94275108 -0.03975141 9.53536359 -2.9375 10.9375 C-5.70314872 11.02130754 -6.84649645 10.78220984 -9 9 C-10.58823529 3.17647059 -10.58823529 3.17647059 -9 0 C-5.88291635 -1.55854182 -3.3141692 -0.68784644 0 0 Z " fill="#ff0000" transform="translate(175,303)"/>
<path d="M0 0 C1.1875 2.1875 1.1875 2.1875 2 5 C0.79614729 7.94275108 -0.03975141 9.53536359 -2.9375 10.9375 C-5.70314872 11.02130754 -6.84649645 10.78220984 -9 9 C-10.58823529 3.17647059 -10.58823529 3.17647059 -9 0 C-5.88291635 -1.55854182 -3.3141692 -0.68784644 0 0 Z " fill="#ff0000" transform="translate(120,303)"/>
<path d="M0 0 C1.1875 2.1875 1.1875 2.1875 2 5 C0.79614729 7.94275108 -0.03975141 9.53536359 -2.9375 10.9375 C-5.70314872 11.02130754 -6.84649645 10.78220984 -9 9 C-10.58823529 3.17647059 -10.58823529 3.17647059 -9 0 C-5.88291635 -1.55854182 -3.3141692 -0.68784644 0 0 Z " fill="#ff0000" transform="translate(65,303)"/>
<path d="M0 0 C1.1875 2.1875 1.1875 2.1875 2 5 C0.79614729 7.94275108 -0.03975141 9.53536359 -2.9375 10.9375 C-5.70314872 11.02130754 -6.84649645 10.78220984 -9 9 C-10.58823529 3.17647059 -10.58823529 3.17647059 -9 0 C-5.88291635 -1.55854182 -3.3141692 -0.68784644 0 0 Z " fill="#ff0000" transform="translate(10,303)"/>
<path d="M0 0 C1.1875 2.1875 1.1875 2.1875 2 5 C0.79614729 7.94275108 -0.03975141 9.53536359 -2.9375 10.9375 C-5.70314872 11.02130754 -6.84649645 10.78220984 -9 9 C-10.58823529 3.17647059 -10.58823529 3.17647059 -9 0 C-5.88291635 -1.55854182 -3.3141692 -0.68784644 0 0 Z " fill="#ff0000" transform="translate(285,248)"/>
<path d="M0 0 C1.1875 2.1875 1.1875 2.1875 2 5 C0.79614729 7.94275108 -0.03975141 9.53536359 -2.9375 10.9375 C-5.70314872 11.02130754 -6.84649645 10.78220984 -9 9 C-10.58823529 3.17647059 -10.58823529 3.17647059 -9 0 C-5.88291635 -1.55854182 -3.3141692 -0.68784644 0 0 Z " fill="#ff0000" transform="translate(230,248)"/>
<path d="M0 0 C1.1875 2.1875 1.1875 2.1875 2 5 C0.79614729 7.94275108 -0.03975141 9.53536359 -2.9375 10.9375 C-5.70314872 11.02130754 -6.84649645 10.78220984 -9 9 C-10.58823529 3.17647059 -10.58823529 3.17647059 -9 0 C-5.88291635 -1.55854182 -3.3141692 -0.68784644 0 0 Z " fill="#ff0000" transform="translate(175,248)"/>
<path d="M0 0 C1.1875 2.1875 1.1875 2.1875 2 5 C0.79614729 7.94275108 -0.03975141 9.53536359 -2.9375 10.9375 C-5.70314872 11.02130754 -6.84649645 10.78220984 -9 9 C-10.58823529 3.17647059 -10.58823529 3.17647059 -9 0 C-5.88291635 -1.55854182 -3.3141692 -0.68784644 0 0 Z " fill="#ff0000" transform="translate(120,248)"/>
<path d="M0 0 C1.1875 2.1875 1.1875 2.1875 2 5 C0.79614729 7.94275108 -0.03975141 9.53536359 -2.9375 10.9375 C-5.70314872 11.02130754 -6.84649645 10.78220984 -9 9 C-10.58823529 3.17647059 -10.58823529 3.17647059 -9 0 C-5.88291635 -1.55854182 -3.3141692 -0.68784644 0 0 Z " fill="#ff0000" transform="translate(65,248)"/>
<path d="M0 0 C1.1875 2.1875 1.1875 2.1875 2 5 C0.79614729 7.94275108 -0.03975141 9.53536359 -2.9375 10.9375 C-5.70314872 11.02130754 -6.84649645 10.78220984 -9 9 C-10.58823529 3.17647059 -10.58823529 3.17647059 -9 0 C-5.88291635 -1.55854182 -3.3141692 -0.68784644 0 0 Z " fill="#ff0000" transform="translate(10,248)"/>
<path d="M0 0 C1.1875 2.1875 1.1875 2.1875 2 5 C0.79614729 7.94275108 -0.03975141 9.53536359 -2.9375 10.9375 C-5.70314872 11.02130754 -6.84649645 10.78220984 -9 9 C-10.58823529 3.17647059 -10.58823529 3.17647059 -9 0 C-5.88291635 -1.55854182 -3.3141692 -0.68784644 0 0 Z " fill="#ff0000" transform="translate(285,193)"/>
<path d="M0 0 C1.1875 2.1875 1.1875 2.1875 2 5 C0.79614729 7.94275108 -0.03975141 9.53536359 -2.9375 10.9375 C-5.70314872 11.02130754 -6.84649645 10.78220984 -9 9 C-10.58823529 3.17647059 -10.58823529 3.17647059 -9 0 C-5.88291635 -1.55854182 -3.3141692 -0.68784644 0 0 Z " fill="#ff0000" transform="translate(230,193)"/>
<path d="M0 0 C1.1875 2.1875 1.1875 2.1875 2 5 C0.79614729 7.94275108 -0.03975141 9.53536359 -2.9375 10.9375 C-5.70314872 11.02130754 -6.84649645 10.78220984 -9 9 C-10.58823529 3.17647059 -10.58823529 3.17647059 -9 0 C-5.88291635 -1.55854182 -3.3141692 -0.68784644 0 0 Z " fill="#ff0000" transform="translate(175,193)"/>
<path d="M0 0 C1.1875 2.1875 1.1875 2.1875 2 5 C0.79614729 7.94275108 -0.03975141 9.53536359 -2.9375 10.9375 C-5.70314872 11.02130754 -6.84649645 10.78220984 -9 9 C-10.58823529 3.17647059 -10.58823529 3.17647059 -9 0 C-5.88291635 -1.55854182 -3.3141692 -0.68784644 0 0 Z " fill="#ff0000" transform="translate(120,193)"/>
<path d="M0 0 C1.1875 2.1875 1.1875 2.1875 2 5 C0.79614729 7.94275108 -0.03975141 9.53536359 -2.9375 10.9375 C-5.70314872 11.02130754 -6.84649645 10.78220984 -9 9 C-10.58823529 3.17647059 -10.58823529 3.17647059 -9 0 C-5.88291635 -1.55854182 -3.3141692 -0.68784644 0 0 Z " fill="#ff0000" transform="translate(65,193)"/>
<path d="M0 0 C1.1875 2.1875 1.1875 2.1875 2 5 C0.79614729 7.94275108 -0.03975141 9.53536359 -2.9375 10.9375 C-5.70314872 11.02130754 -6.84649645 10.78220984 -9 9 C-10.58823529 3.17647059 -10.58823529 3.17647059 -9 0 C-5.88291635 -1.55854182 -3.3141692 -0.68784644 0 0 Z " fill="#ff0000" transform="translate(10,193)"/>
<path d="M0 0 C1.1875 2.1875 1.1875 2.1875 2 5 C0.79614729 7.94275108 -0.03975141 9.53536359 -2.9375 10.9375 C-5.70314872 11.02130754 -6.84649645 10.78220984 -9 9 C-10.58823529 3.17647059 -10.58823529 3.17647059 -9 0 C-5.88291635 -1.55854182 -3.3141692 -0.68784644 0 0 Z " fill="#ff0000" transform="translate(285,138)"/>
<path d="M0 0 C1.1875 2.1875 1.1875 2.1875 2 5 C0.79614729 7.94275108 -0.03975141 9.53536359 -2.9375 10.9375 C-5.70314872 11.02130754 -6.84649645 10.78220984 -9 9 C-10.58823529 3.17647059 -10.58823529 3.17647059 -9 0 C-5.88291635 -1.55854182 -3.3141692 -0.68784644 0 0 Z " fill="#ff0000" transform="translate(230,138)"/>
<path d="M0 0 C1.1875 2.1875 1.1875 2.1875 2 5 C0.79614729 7.94275108 -0.03975141 9.53536359 -2.9375 10.9375 C-5.70314872 11.02130754 -6.84649645 10.78220984 -9 9 C-10.58823529 3.17647059 -10.58823529 3.17647059 -9 0 C-5.88291635 -1.55854182 -3.3141692 -0.68784644 0 0 Z " fill="#ff0000" transform="translate(175,138)"/>
<path d="M0 0 C1.1875 2.1875 1.1875 2.1875 2 5 C0.79614729 7.94275108 -0.03975141 9.53536359 -2.9375 10.9375 C-5.70314872 11.02130754 -6.84649645 10.78220984 -9 9 C-10.58823529 3.17647059 -10.58823529 3.17647059 -9 0 C-5.88291635 -1.55854182 -3.3141692 -0.68784644 0 0 Z " fill="#ff0000" transform="translate(120,138)"/>
<path d="M0 0 C1.1875 2.1875 1.1875 2.1875 2 5 C0.79614729 7.94275108 -0.03975141 9.53536359 -2.9375 10.9375 C-5.70314872 11.02130754 -6.84649645 10.78220984 -9 9 C-10.58823529 3.17647059 -10.58823529 3.17647059 -9 0 C-5.88291635 -1.55854182 -3.3141692 -0.68784644 0 0 Z " fill="#ff0000" transform="translate(65,138)"/>
<path d="M0 0 C1.1875 2.1875 1.1875 2.1875 2 5 C0.79614729 7.94275108 -0.03975141 9.53536359 -2.9375 10.9375 C-5.70314872 11.02130754 -6.84649645 10.78220984 -9 9 C-10.58823529 3.17647059 -10.58823529 3.17647059 -9 0 C-5.88291635 -1.55854182 -3.3141692 -0.68784644 0 0 Z " fill="#ff0000" transform="translate(10,138)"/>
<path d="M0 0 C1.1875 2.1875 1.1875 2.1875 2 5 C0.79614729 7.94275108 -0.03975141 9.53536359 -2.9375 10.9375 C-5.70314872 11.02130754 -6.84649645 10.78220984 -9 9 C-10.58823529 3.17647059 -10.58823529 3.17647059 -9 0 C-5.88291635 -1.55854182 -3.3141692 -0.68784644 0 0 Z " fill="#ff0000" transform="translate(285,83)"/>
<path d="M0 0 C1.1875 2.1875 1.1875 2.1875 2 5 C0.79614729 7.94275108 -0.03975141 9.53536359 -2.9375 10.9375 C-5.70314872 11.02130754 -6.84649645 10.78220984 -9 9 C-10.58823529 3.17647059 -10.58823529 3.17647059 -9 0 C-5.88291635 -1.55854182 -3.3141692 -0.68784644 0 0 Z " fill="#ff0000" transform="translate(230,83)"/>
<path d="M0 0 C1.1875 2.1875 1.1875 2.1875 2 5 C0.79614729 7.94275108 -0.03975141 9.53536359 -2.9375 10.9375 C-5.70314872 11.02130754 -6.84649645 10.78220984 -9 9 C-10.58823529 3.17647059 -10.58823529 3.17647059 -9 0 C-5.88291635 -1.55854182 -3.3141692 -0.68784644 0 0 Z " fill="#ff0000" transform="translate(175,83)"/>
<path d="M0 0 C1.1875 2.1875 1.1875 2.1875 2 5 C0.79614729 7.94275108 -0.03975141 9.53536359 -2.9375 10.9375 C-5.70314872 11.02130754 -6.84649645 10.78220984 -9 9 C-10.58823529 3.17647059 -10.58823529 3.17647059 -9 0 C-5.88291635 -1.55854182 -3.3141692 -0.68784644 0 0 Z " fill="#ff0000" transform="translate(120,83)"/>
<path d="M0 0 C1.1875 2.1875 1.1875 2.1875 2 5 C0.79614729 7.94275108 -0.03975141 9.53536359 -2.9375 10.9375 C-5.70314872 11.02130754 -6.84649645 10.78220984 -9 9 C-10.58823529 3.17647059 -10.58823529 3.17647059 -9 0 C-5.88291635 -1.55854182 -3.3141692 -0.68784644 0 0 Z " fill="#ff0000" transform="translate(65,83)"/>
<path d="M0 0 C1.1875 2.1875 1.1875 2.1875 2 5 C0.79614729 7.94275108 -0.03975141 9.53536359 -2.9375 10.9375 C-5.70314872 11.02130754 -6.84649645 10.78220984 -9 9 C-10.58823529 3.17647059 -10.58823529 3.17647059 -9 0 C-5.88291635 -1.55854182 -3.3141692 -0.68784644 0 0 Z " fill="#ff0000" transform="translate(10,83)"/>
<path d="M0 0 C1.1875 2.1875 1.1875 2.1875 2 5 C0.79614729 7.94275108 -0.03975141 9.53536359 -2.9375 10.9375 C-5.70314872 11.02130754 -6.84649645 10.78220984 -9 9 C-10.58823529 3.17647059 -10.58823529 3.17647059 -9 0 C-5.88291635 -1.55854182 -3.3141692 -0.68784644 0 0 Z " fill="#ff0000" transform="translate(285,28)"/>
<path d="M0 0 C1.1875 2.1875 1.1875 2.1875 2 5 C0.79614729 7.94275108 -0.03975141 9.53536359 -2.9375 10.9375 C-5.70314872 11.02130754 -6.84649645 10.78220984 -9 9 C-10.58823529 3.17647059 -10.58823529 3.17647059 -9 0 C-5.88291635 -1.55854182 -3.3141692 -0.68784644 0 0 Z " fill="#ff0000" transform="translate(230,28)"/>
<path d="M0 0 C1.1875 2.1875 1.1875 2.1875 2 5 C0.79614729 7.94275108 -0.03975141 9.53536359 -2.9375 10.9375 C-5.70314872 11.02130754 -6.84649645 10.78220984 -9 9 C-10.58823529 3.17647059 -10.58823529 3.17647059 -9 0 C-5.88291635 -1.55854182 -3.3141692 -0.68784644 0 0 Z " fill="#ff0000" transform="translate(175,28)"/>
<path d="M0 0 C1.1875 2.1875 1.1875 2.1875 2 5 C0.79614729 7.94275108 -0.03975141 9.53536359 -2.9375 10.9375 C-5.70314872 11.02130754 -6.84649645 10.78220984 -9 9 C-10.58823529 3.17647059 -10.58823529 3.17647059 -9 0 C-5.88291635 -1.55854182 -3.3141692 -0.68784644 0 0 Z " fill="#ff0000" transform="translate(120,28)"/>
<path d="M0 0 C1.1875 2.1875 1.1875 2.1875 2 5 C0.79614729 7.94275108 -0.03975141 9.53536359 -2.9375 10.9375 C-5.70314872 11.02130754 -6.84649645 10.78220984 -9 9 C-10.58823529 3.17647059 -10.58823529 3.17647059 -9 0 C-5.88291635 -1.55854182 -3.3141692 -0.68784644 0 0 Z " fill="#ff0000" transform="translate(65,28)"/>
<path d="M0 0 C1.1875 2.1875 1.1875 2.1875 2 5 C0.79614729 7.94275108 -0.03975141 9.53536359 -2.9375 10.9375 C-5.70314872 11.02130754 -6.84649645 10.78220984 -9 9 C-10.58823529 3.17647059 -10.58823529 3.17647059 -9 0 C-5.88291635 -1.55854182 -3.3141692 -0.68784644 0 0 Z " fill="#ff0000" transform="translate(10,28)"/>
<path d="M0 0 C3.625 0.375 3.625 0.375 5.6875 2.5625 C6.625 5.375 6.625 5.375 5.8125 8.1875 C5.420625 8.909375 5.02875 9.63125 4.625 10.375 C-1.735 11.695 -1.735 11.695 -4.375 10.375 C-5.94779672 7.22940657 -5.1165208 4.71184358 -4.375 1.375 C-3.375 0.375 -3.375 0.375 0 0 Z " fill="#ff0000" transform="translate(280.375,274.625)"/>
<path d="M0 0 C3.625 0.375 3.625 0.375 5.6875 2.5625 C6.625 5.375 6.625 5.375 5.8125 8.1875 C5.420625 8.909375 5.02875 9.63125 4.625 10.375 C-1.735 11.695 -1.735 11.695 -4.375 10.375 C-5.94779672 7.22940657 -5.1165208 4.71184358 -4.375 1.375 C-3.375 0.375 -3.375 0.375 0 0 Z " fill="#ff0000" transform="translate(225.375,274.625)"/>
<path d="M0 0 C3.625 0.375 3.625 0.375 5.6875 2.5625 C6.625 5.375 6.625 5.375 5.8125 8.1875 C5.420625 8.909375 5.02875 9.63125 4.625 10.375 C-1.735 11.695 -1.735 11.695 -4.375 10.375 C-5.94779672 7.22940657 -5.1165208 4.71184358 -4.375 1.375 C-3.375 0.375 -3.375 0.375 0 0 Z " fill="#ff0000" transform="translate(170.375,274.625)"/>
<path d="M0 0 C3.625 0.375 3.625 0.375 5.6875 2.5625 C6.625 5.375 6.625 5.375 5.8125 8.1875 C5.420625 8.909375 5.02875 9.63125 4.625 10.375 C-1.735 11.695 -1.735 11.695 -4.375 10.375 C-5.94779672 7.22940657 -5.1165208 4.71184358 -4.375 1.375 C-3.375 0.375 -3.375 0.375 0 0 Z " fill="#ff0000" transform="translate(115.375,274.625)"/>
<path d="M0 0 C3.625 0.375 3.625 0.375 5.6875 2.5625 C6.625 5.375 6.625 5.375 5.8125 8.1875 C5.420625 8.909375 5.02875 9.63125 4.625 10.375 C-1.735 11.695 -1.735 11.695 -4.375 10.375 C-5.94779672 7.22940657 -5.1165208 4.71184358 -4.375 1.375 C-3.375 0.375 -3.375 0.375 0 0 Z " fill="#ff0000" transform="translate(60.375,274.625)"/>
<path d="M0 0 C3.625 0.375 3.625 0.375 5.6875 2.5625 C6.625 5.375 6.625 5.375 5.8125 8.1875 C5.420625 8.909375 5.02875 9.63125 4.625 10.375 C-1.735 11.695 -1.735 11.695 -4.375 10.375 C-5.94779672 7.22940657 -5.1165208 4.71184358 -4.375 1.375 C-3.375 0.375 -3.375 0.375 0 0 Z " fill="#ff0000" transform="translate(5.375,274.625)"/>
<path d="M0 0 C3.625 0.375 3.625 0.375 5.6875 2.5625 C6.625 5.375 6.625 5.375 5.8125 8.1875 C5.420625 8.909375 5.02875 9.63125 4.625 10.375 C-1.735 11.695 -1.735 11.695 -4.375 10.375 C-5.94779672 7.22940657 -5.1165208 4.71184358 -4.375 1.375 C-3.375 0.375 -3.375 0.375 0 0 Z " fill="#ff0000" transform="translate(280.375,219.625)"/>
<path d="M0 0 C3.625 0.375 3.625 0.375 5.6875 2.5625 C6.625 5.375 6.625 5.375 5.8125 8.1875 C5.420625 8.909375 5.02875 9.63125 4.625 10.375 C-1.735 11.695 -1.735 11.695 -4.375 10.375 C-5.94779672 7.22940657 -5.1165208 4.71184358 -4.375 1.375 C-3.375 0.375 -3.375 0.375 0 0 Z " fill="#ff0000" transform="translate(225.375,219.625)"/>
<path d="M0 0 C3.625 0.375 3.625 0.375 5.6875 2.5625 C6.625 5.375 6.625 5.375 5.8125 8.1875 C5.420625 8.909375 5.02875 9.63125 4.625 10.375 C-1.735 11.695 -1.735 11.695 -4.375 10.375 C-5.94779672 7.22940657 -5.1165208 4.71184358 -4.375 1.375 C-3.375 0.375 -3.375 0.375 0 0 Z " fill="#ff0000" transform="translate(170.375,219.625)"/>
<path d="M0 0 C3.625 0.375 3.625 0.375 5.6875 2.5625 C6.625 5.375 6.625 5.375 5.8125 8.1875 C5.420625 8.909375 5.02875 9.63125 4.625 10.375 C-1.735 11.695 -1.735 11.695 -4.375 10.375 C-5.94779672 7.22940657 -5.1165208 4.71184358 -4.375 1.375 C-3.375 0.375 -3.375 0.375 0 0 Z " fill="#ff0000" transform="translate(115.375,219.625)"/>
<path d="M0 0 C3.625 0.375 3.625 0.375 5.6875 2.5625 C6.625 5.375 6.625 5.375 5.8125 8.1875 C5.420625 8.909375 5.02875 9.63125 4.625 10.375 C-1.735 11.695 -1.735 11.695 -4.375 10.375 C-5.94779672 7.22940657 -5.1165208 4.71184358 -4.375 1.375 C-3.375 0.375 -3.375 0.375 0 0 Z " fill="#ff0000" transform="translate(60.375,219.625)"/>
<path d="M0 0 C3.625 0.375 3.625 0.375 5.6875 2.5625 C6.625 5.375 6.625 5.375 5.8125 8.1875 C5.420625 8.909375 5.02875 9.63125 4.625 10.375 C-1.735 11.695 -1.735 11.695 -4.375 10.375 C-5.94779672 7.22940657 -5.1165208 4.71184358 -4.375 1.375 C-3.375 0.375 -3.375 0.375 0 0 Z " fill="#ff0000" transform="translate(5.375,219.625)"/>
<path d="M0 0 C3.625 0.375 3.625 0.375 5.6875 2.5625 C6.625 5.375 6.625 5.375 5.8125 8.1875 C5.420625 8.909375 5.02875 9.63125 4.625 10.375 C-1.735 11.695 -1.735 11.695 -4.375 10.375 C-5.94779672 7.22940657 -5.1165208 4.71184358 -4.375 1.375 C-3.375 0.375 -3.375 0.375 0 0 Z " fill="#ff0000" transform="translate(280.375,164.625)"/>
<path d="M0 0 C3.625 0.375 3.625 0.375 5.6875 2.5625 C6.625 5.375 6.625 5.375 5.8125 8.1875 C5.420625 8.909375 5.02875 9.63125 4.625 10.375 C-1.735 11.695 -1.735 11.695 -4.375 10.375 C-5.94779672 7.22940657 -5.1165208 4.71184358 -4.375 1.375 C-3.375 0.375 -3.375 0.375 0 0 Z " fill="#ff0000" transform="translate(225.375,164.625)"/>
<path d="M0 0 C3.625 0.375 3.625 0.375 5.6875 2.5625 C6.625 5.375 6.625 5.375 5.8125 8.1875 C5.420625 8.909375 5.02875 9.63125 4.625 10.375 C-1.735 11.695 -1.735 11.695 -4.375 10.375 C-5.94779672 7.22940657 -5.1165208 4.71184358 -4.375 1.375 C-3.375 0.375 -3.375 0.375 0 0 Z " fill="#ff0000" transform="translate(170.375,164.625)"/>
<path d="M0 0 C3.625 0.375 3.625 0.375 5.6875 2.5625 C6.625 5.375 6.625 5.375 5.8125 8.1875 C5.420625 8.909375 5.02875 9.63125 4.625 10.375 C-1.735 11.695 -1.735 11.695 -4.375 10.375 C-5.94779672 7.22940657 -5.1165208 4.71184358 -4.375 1.375 C-3.375 0.375 -3.375 0.375 0 0 Z " fill="#ff0000" transform="translate(115.375,164.625)"/>
<path d="M0 0 C3.625 0.375 3.625 0.375 5.6875 2.5625 C6.625 5.375 6.625 5.375 5.8125 8.1875 C5.420625 8.909375 5.02875 9.63125 4.625 10.375 C-1.735 11.695 -1.735 11.695 -4.375 10.375 C-5.94779672 7.22940657 -5.1165208 4.71184358 -4.375 1.375 C-3.375 0.375 -3.375 0.375 0 0 Z " fill="#ff0000" transform="translate(60.375,164.625)"/>
<path d="M0 0 C3.625 0.375 3.625 0.375 5.6875 2.5625 C6.625 5.375 6.625 5.375 5.8125 8.1875 C5.420625 8.909375 5.02875 9.63125 4.625 10.375 C-1.735 11.695 -1.735 11.695 -4.375 10.375 C-5.94779672 7.22940657 -5.1165208 4.71184358 -4.375 1.375 C-3.375 0.375 -3.375 0.375 0 0 Z " fill="#ff0000" transform="translate(5.375,164.625)"/>
<path d="M0 0 C3.625 0.375 3.625 0.375 5.6875 2.5625 C6.625 5.375 6.625 5.375 5.8125 8.1875 C5.420625 8.909375 5.02875 9.63125 4.625 10.375 C-1.735 11.695 -1.735 11.695 -4.375 10.375 C-5.94779672 7.22940657 -5.1165208 4.71184358 -4.375 1.375 C-3.375 0.375 -3.375 0.375 0 0 Z " fill="#ff0000" transform="translate(280.375,109.625)"/>
<path d="M0 0 C3.625 0.375 3.625 0.375 5.6875 2.5625 C6.625 5.375 6.625 5.375 5.8125 8.1875 C5.420625 8.909375 5.02875 9.63125 4.625 10.375 C-1.735 11.695 -1.735 11.695 -4.375 10.375 C-5.94779672 7.22940657 -5.1165208 4.71184358 -4.375 1.375 C-3.375 0.375 -3.375 0.375 0 0 Z " fill="#ff0000" transform="translate(225.375,109.625)"/>
<path d="M0 0 C3.625 0.375 3.625 0.375 5.6875 2.5625 C6.625 5.375 6.625 5.375 5.8125 8.1875 C5.420625 8.909375 5.02875 9.63125 4.625 10.375 C-1.735 11.695 -1.735 11.695 -4.375 10.375 C-5.94779672 7.22940657 -5.1165208 4.71184358 -4.375 1.375 C-3.375 0.375 -3.375 0.375 0 0 Z " fill="#ff0000" transform="translate(170.375,109.625)"/>
<path d="M0 0 C3.625 0.375 3.625 0.375 5.6875 2.5625 C6.625 5.375 6.625 5.375 5.8125 8.1875 C5.420625 8.909375 5.02875 9.63125 4.625 10.375 C-1.735 11.695 -1.735 11.695 -4.375 10.375 C-5.94779672 7.22940657 -5.1165208 4.71184358 -4.375 1.375 C-3.375 0.375 -3.375 0.375 0 0 Z " fill="#ff0000" transform="translate(115.375,109.625)"/>
<path d="M0 0 C3.625 0.375 3.625 0.375 5.6875 2.5625 C6.625 5.375 6.625 5.375 5.8125 8.1875 C5.420625 8.909375 5.02875 9.63125 4.625 10.375 C-1.735 11.695 -1.735 11.695 -4.375 10.375 C-5.94779672 7.22940657 -5.1165208 4.71184358 -4.375 1.375 C-3.375 0.375 -3.375 0.375 0 0 Z " fill="#ff0000" transform="translate(60.375,109.625)"/>
<path d="M0 0 C3.625 0.375 3.625 0.375 5.6875 2.5625 C6.625 5.375 6.625 5.375 5.8125 8.1875 C5.420625 8.909375 5.02875 9.63125 4.625 10.375 C-1.735 11.695 -1.735 11.695 -4.375 10.375 C-5.94779672 7.22940657 -5.1165208 4.71184358 -4.375 1.375 C-3.375 0.375 -3.375 0.375 0 0 Z " fill="#ff0000" transform="translate(5.375,109.625)"/>
<path d="M0 0 C3.625 0.375 3.625 0.375 5.6875 2.5625 C6.625 5.375 6.625 5.375 5.8125 8.1875 C5.420625 8.909375 5.02875 9.63125 4.625 10.375 C-1.735 11.695 -1.735 11.695 -4.375 10.375 C-5.94779672 7.22940657 -5.1165208 4.71184358 -4.375 1.375 C-3.375 0.375 -3.375 0.375 0 0 Z " fill="#ff0000" transform="translate(280.375,54.625)"/>
<path d="M0 0 C3.625 0.375 3.625 0.375 5.6875 2.5625 C6.625 5.375 6.625 5.375 5.8125 8.1875 C5.420625 8.909375 5.02875 9.63125 4.625 10.375 C-1.735 11.695 -1.735 11.695 -4.375 10.375 C-5.94779672 7.22940657 -5.1165208 4.71184358 -4.375 1.375 C-3.375 0.375 -3.375 0.375 0 0 Z " fill="#ff0000" transform="translate(225.375,54.625)"/>
<path d="M0 0 C3.625 0.375 3.625 0.375 5.6875 2.5625 C6.625 5.375 6.625 5.375 5.8125 8.1875 C5.420625 8.909375 5.02875 9.63125 4.625 10.375 C-1.735 11.695 -1.735 11.695 -4.375 10.375 C-5.94779672 7.22940657 -5.1165208 4.71184358 -4.375 1.375 C-3.375 0.375 -3.375 0.375 0 0 Z " fill="#ff0000" transform="translate(170.375,54.625)"/>
<path d="M0 0 C3.625 0.375 3.625 0.375 5.6875 2.5625 C6.625 5.375 6.625 5.375 5.8125 8.1875 C5.420625 8.909375 5.02875 9.63125 4.625 10.375 C-1.735 11.695 -1.735 11.695 -4.375 10.375 C-5.94779672 7.22940657 -5.1165208 4.71184358 -4.375 1.375 C-3.375 0.375 -3.375 0.375 0 0 Z " fill="#ff0000" transform="translate(115.375,54.625)"/>
<path d="M0 0 C3.625 0.375 3.625 0.375 5.6875 2.5625 C6.625 5.375 6.625 5.375 5.8125 8.1875 C5.420625 8.909375 5.02875 9.63125 4.625 10.375 C-1.735 11.695 -1.735 11.695 -4.375 10.375 C-5.94779672 7.22940657 -5.1165208 4.71184358 -4.375 1.375 C-3.375 0.375 -3.375 0.375 0 0 Z " fill="#ff0000" transform="translate(60.375,54.625)"/>
<path d="M0 0 C3.625 0.375 3.625 0.375 5.6875 2.5625 C6.625 5.375 6.625 5.375 5.8125 8.1875 C5.420625 8.909375 5.02875 9.63125 4.625 10.375 C-1.735 11.695 -1.735 11.695 -4.375 10.375 C-5.94779672 7.22940657 -5.1165208 4.71184358 -4.375 1.375 C-3.375 0.375 -3.375 0.375 0 0 Z " fill="#ff0000" transform="translate(5.375,54.625)"/>
<path d="M0 0 C3.625 0.375 3.625 0.375 5.6875 2.5625 C6.625 5.375 6.625 5.375 5.8125 8.1875 C5.420625 8.909375 5.02875 9.63125 4.625 10.375 C-1.735 11.695 -1.735 11.695 -4.375 10.375 C-5.94779672 7.22940657 -5.1165208 4.71184358 -4.375 1.375 C-3.375 0.375 -3.375 0.375 0 0 Z " fill="#ff0000" transform="translate(280.375,-0.375)"/>
<path d="M0 0 C3.625 0.375 3.625 0.375 5.6875 2.5625 C6.625 5.375 6.625 5.375 5.8125 8.1875 C5.420625 8.909375 5.02875 9.63125 4.625 10.375 C-1.735 11.695 -1.735 11.695 -4.375 10.375 C-5.94779672 7.22940657 -5.1165208 4.71184358 -4.375 1.375 C-3.375 0.375 -3.375 0.375 0 0 Z " fill="#ff0000" transform="translate(225.375,-0.375)"/>
<path d="M0 0 C3.625 0.375 3.625 0.375 5.6875 2.5625 C6.625 5.375 6.625 5.375 5.8125 8.1875 C5.420625 8.909375 5.02875 9.63125 4.625 10.375 C-1.735 11.695 -1.735 11.695 -4.375 10.375 C-5.94779672 7.22940657 -5.1165208 4.71184358 -4.375 1.375 C-3.375 0.375 -3.375 0.375 0 0 Z " fill="#ff0000" transform="translate(170.375,-0.375)"/>
<path d="M0 0 C3.625 0.375 3.625 0.375 5.6875 2.5625 C6.625 5.375 6.625 5.375 5.8125 8.1875 C5.420625 8.909375 5.02875 9.63125 4.625 10.375 C-1.735 11.695 -1.735 11.695 -4.375 10.375 C-5.94779672 7.22940657 -5.1165208 4.71184358 -4.375 1.375 C-3.375 0.375 -3.375 0.375 0 0 Z " fill="#ff0000" transform="translate(115.375,-0.375)"/>
<path d="M0 0 C3.625 0.375 3.625 0.375 5.6875 2.5625 C6.625 5.375 6.625 5.375 5.8125 8.1875 C5.420625 8.909375 5.02875 9.63125 4.625 10.375 C-1.735 11.695 -1.735 11.695 -4.375 10.375 C-5.94779672 7.22940657 -5.1165208 4.71184358 -4.375 1.375 C-3.375 0.375 -3.375 0.375 0 0 Z " fill="#ff0000" transform="translate(60.375,-0.375)"/>
<path d="M0 0 C3.625 0.375 3.625 0.375 5.6875 2.5625 C6.625 5.375 6.625 5.375 5.8125 8.1875 C5.420625 8.909375 5.02875 9.63125 4.625 10.375 C-1.735 11.695 -1.735 11.695 -4.375 10.375 C-5.94779672 7.22940657 -5.1165208 4.71184358 -4.375 1.375 C-3.375 0.375 -3.375 0.375 0 0 Z " fill="#ff0000" transform="translate(5.375,-0.375)"/>
<path d="M0 0 C1.875 1.0625 1.875 1.0625 3 3 C2.6875 6.6875 2.6875 6.6875 2 10 C-0.1875 11.1875 -0.1875 11.1875 -3 12 C-5.8125 11 -5.8125 11 -8 9 C-8.54024299 5.75854208 -8.58904542 3.93007172 -6.8125 1.125 C-4.34492892 -0.40659584 -2.85480169 -0.42822025 0 0 Z " fill="#ff0000" transform="translate(311,302)"/>
<path d="M0 0 C1.875 1.0625 1.875 1.0625 3 3 C2.6875 6.6875 2.6875 6.6875 2 10 C-0.1875 11.1875 -0.1875 11.1875 -3 12 C-5.8125 11 -5.8125 11 -8 9 C-8.54024299 5.75854208 -8.58904542 3.93007172 -6.8125 1.125 C-4.34492892 -0.40659584 -2.85480169 -0.42822025 0 0 Z " fill="#ff0000" transform="translate(256,302)"/>
<path d="M0 0 C1.875 1.0625 1.875 1.0625 3 3 C2.6875 6.6875 2.6875 6.6875 2 10 C-0.1875 11.1875 -0.1875 11.1875 -3 12 C-5.8125 11 -5.8125 11 -8 9 C-8.54024299 5.75854208 -8.58904542 3.93007172 -6.8125 1.125 C-4.34492892 -0.40659584 -2.85480169 -0.42822025 0 0 Z " fill="#ff0000" transform="translate(201,302)"/>
<path d="M0 0 C1.875 1.0625 1.875 1.0625 3 3 C2.6875 6.6875 2.6875 6.6875 2 10 C-0.1875 11.1875 -0.1875 11.1875 -3 12 C-5.8125 11 -5.8125 11 -8 9 C-8.54024299 5.75854208 -8.58904542 3.93007172 -6.8125 1.125 C-4.34492892 -0.40659584 -2.85480169 -0.42822025 0 0 Z " fill="#ff0000" transform="translate(146,302)"/>
<path d="M0 0 C1.875 1.0625 1.875 1.0625 3 3 C2.6875 6.6875 2.6875 6.6875 2 10 C-0.1875 11.1875 -0.1875 11.1875 -3 12 C-5.8125 11 -5.8125 11 -8 9 C-8.54024299 5.75854208 -8.58904542 3.93007172 -6.8125 1.125 C-4.34492892 -0.40659584 -2.85480169 -0.42822025 0 0 Z " fill="#ff0000" transform="translate(91,302)"/>
<path d="M0 0 C1.875 1.0625 1.875 1.0625 3 3 C2.6875 6.6875 2.6875 6.6875 2 10 C-0.1875 11.1875 -0.1875 11.1875 -3 12 C-5.8125 11 -5.8125 11 -8 9 C-8.54024299 5.75854208 -8.58904542 3.93007172 -6.8125 1.125 C-4.34492892 -0.40659584 -2.85480169 -0.42822025 0 0 Z " fill="#ff0000" transform="translate(36,302)"/>
<path d="M0 0 C1.7325 0.1546875 1.7325 0.1546875 3.5 0.3125 C5.65502531 3.54503796 5.96856135 4.56400923 5.5 8.3125 C4.4375 10.1875 4.4375 10.1875 2.5 11.3125 C-3.94444444 10.86805556 -3.94444444 10.86805556 -5.5 9.3125 C-5.6875 5.875 -5.6875 5.875 -5.5 2.3125 C-3.5 0.3125 -3.5 0.3125 0 0 Z " fill="#100942" transform="translate(308.5,274.6875)"/>
<path d="M0 0 C1.7325 0.1546875 1.7325 0.1546875 3.5 0.3125 C5.65502531 3.54503796 5.96856135 4.56400923 5.5 8.3125 C4.4375 10.1875 4.4375 10.1875 2.5 11.3125 C-3.94444444 10.86805556 -3.94444444 10.86805556 -5.5 9.3125 C-5.6875 5.875 -5.6875 5.875 -5.5 2.3125 C-3.5 0.3125 -3.5 0.3125 0 0 Z " fill="#100942" transform="translate(253.5,274.6875)"/>
<path d="M0 0 C1.7325 0.1546875 1.7325 0.1546875 3.5 0.3125 C5.65502531 3.54503796 5.96856135 4.56400923 5.5 8.3125 C4.4375 10.1875 4.4375 10.1875 2.5 11.3125 C-3.94444444 10.86805556 -3.94444444 10.86805556 -5.5 9.3125 C-5.6875 5.875 -5.6875 5.875 -5.5 2.3125 C-3.5 0.3125 -3.5 0.3125 0 0 Z " fill="#100942" transform="translate(198.5,274.6875)"/>
<path d="M0 0 C1.7325 0.1546875 1.7325 0.1546875 3.5 0.3125 C5.65502531 3.54503796 5.96856135 4.56400923 5.5 8.3125 C4.4375 10.1875 4.4375 10.1875 2.5 11.3125 C-3.94444444 10.86805556 -3.94444444 10.86805556 -5.5 9.3125 C-5.6875 5.875 -5.6875 5.875 -5.5 2.3125 C-3.5 0.3125 -3.5 0.3125 0 0 Z " fill="#100942" transform="translate(143.5,274.6875)"/>
<path d="M0 0 C1.7325 0.1546875 1.7325 0.1546875 3.5 0.3125 C5.65502531 3.54503796 5.96856135 4.56400923 5.5 8.3125 C4.4375 10.1875 4.4375 10.1875 2.5 11.3125 C-3.94444444 10.86805556 -3.94444444 10.86805556 -5.5 9.3125 C-5.6875 5.875 -5.6875 5.875 -5.5 2.3125 C-3.5 0.3125 -3.5 0.3125 0 0 Z " fill="#100942" transform="translate(88.5,274.6875)"/>
<path d="M0 0 C1.7325 0.1546875 1.7325 0.1546875 3.5 0.3125 C5.65502531 3.54503796 5.96856135 4.56400923 5.5 8.3125 C4.4375 10.1875 4.4375 10.1875 2.5 11.3125 C-3.94444444 10.86805556 -3.94444444 10.86805556 -5.5 9.3125 C-5.6875 5.875 -5.6875 5.875 -5.5 2.3125 C-3.5 0.3125 -3.5 0.3125 0 0 Z " fill="#100942" transform="translate(33.5,274.6875)"/>
<path d="M0 0 C1.875 1.0625 1.875 1.0625 3 3 C2.6875 6.6875 2.6875 6.6875 2 10 C-0.1875 11.1875 -0.1875 11.1875 -3 12 C-5.8125 11 -5.8125 11 -8 9 C-8.54024299 5.75854208 -8.58904542 3.93007172 -6.8125 1.125 C-4.34492892 -0.40659584 -2.85480169 -0.42822025 0 0 Z " fill="#110942" transform="translate(311,247)"/>
<path d="M0 0 C1.875 1.0625 1.875 1.0625 3 3 C2.6875 6.6875 2.6875 6.6875 2 10 C-0.1875 11.1875 -0.1875 11.1875 -3 12 C-5.8125 11 -5.8125 11 -8 9 C-8.54024299 5.75854208 -8.58904542 3.93007172 -6.8125 1.125 C-4.34492892 -0.40659584 -2.85480169 -0.42822025 0 0 Z " fill="#110942" transform="translate(256,247)"/>
<path d="M0 0 C1.875 1.0625 1.875 1.0625 3 3 C2.6875 6.6875 2.6875 6.6875 2 10 C-0.1875 11.1875 -0.1875 11.1875 -3 12 C-5.8125 11 -5.8125 11 -8 9 C-8.54024299 5.75854208 -8.58904542 3.93007172 -6.8125 1.125 C-4.34492892 -0.40659584 -2.85480169 -0.42822025 0 0 Z " fill="#110942" transform="translate(201,247)"/>
<path d="M0 0 C1.875 1.0625 1.875 1.0625 3 3 C2.6875 6.6875 2.6875 6.6875 2 10 C-0.1875 11.1875 -0.1875 11.1875 -3 12 C-5.8125 11 -5.8125 11 -8 9 C-8.54024299 5.75854208 -8.58904542 3.93007172 -6.8125 1.125 C-4.34492892 -0.40659584 -2.85480169 -0.42822025 0 0 Z " fill="#110942" transform="translate(146,247)"/>
<path d="M0 0 C1.875 1.0625 1.875 1.0625 3 3 C2.6875 6.6875 2.6875 6.6875 2 10 C-0.1875 11.1875 -0.1875 11.1875 -3 12 C-5.8125 11 -5.8125 11 -8 9 C-8.54024299 5.75854208 -8.58904542 3.93007172 -6.8125 1.125 C-4.34492892 -0.40659584 -2.85480169 -0.42822025 0 0 Z " fill="#110942" transform="translate(91,247)"/>
<path d="M0 0 C1.875 1.0625 1.875 1.0625 3 3 C2.6875 6.6875 2.6875 6.6875 2 10 C-0.1875 11.1875 -0.1875 11.1875 -3 12 C-5.8125 11 -5.8125 11 -8 9 C-8.54024299 5.75854208 -8.58904542 3.93007172 -6.8125 1.125 C-4.34492892 -0.40659584 -2.85480169 -0.42822025 0 0 Z " fill="#110942" transform="translate(36,247)"/>
<path d="M0 0 C1.7325 0.1546875 1.7325 0.1546875 3.5 0.3125 C5.65502531 3.54503796 5.96856135 4.56400923 5.5 8.3125 C4.4375 10.1875 4.4375 10.1875 2.5 11.3125 C-3.94444444 10.86805556 -3.94444444 10.86805556 -5.5 9.3125 C-5.6875 5.875 -5.6875 5.875 -5.5 2.3125 C-3.5 0.3125 -3.5 0.3125 0 0 Z " fill="#100942" transform="translate(308.5,219.6875)"/>
<path d="M0 0 C1.7325 0.1546875 1.7325 0.1546875 3.5 0.3125 C5.65502531 3.54503796 5.96856135 4.56400923 5.5 8.3125 C4.4375 10.1875 4.4375 10.1875 2.5 11.3125 C-3.94444444 10.86805556 -3.94444444 10.86805556 -5.5 9.3125 C-5.6875 5.875 -5.6875 5.875 -5.5 2.3125 C-3.5 0.3125 -3.5 0.3125 0 0 Z " fill="#100942" transform="translate(253.5,219.6875)"/>
<path d="M0 0 C1.7325 0.1546875 1.7325 0.1546875 3.5 0.3125 C5.65502531 3.54503796 5.96856135 4.56400923 5.5 8.3125 C4.4375 10.1875 4.4375 10.1875 2.5 11.3125 C-3.94444444 10.86805556 -3.94444444 10.86805556 -5.5 9.3125 C-5.6875 5.875 -5.6875 5.875 -5.5 2.3125 C-3.5 0.3125 -3.5 0.3125 0 0 Z " fill="#100942" transform="translate(198.5,219.6875)"/>
<path d="M0 0 C1.7325 0.1546875 1.7325 0.1546875 3.5 0.3125 C5.65502531 3.54503796 5.96856135 4.56400923 5.5 8.3125 C4.4375 10.1875 4.4375 10.1875 2.5 11.3125 C-3.94444444 10.86805556 -3.94444444 10.86805556 -5.5 9.3125 C-5.6875 5.875 -5.6875 5.875 -5.5 2.3125 C-3.5 0.3125 -3.5 0.3125 0 0 Z " fill="#100942" transform="translate(143.5,219.6875)"/>
<path d="M0 0 C1.7325 0.1546875 1.7325 0.1546875 3.5 0.3125 C5.65502531 3.54503796 5.96856135 4.56400923 5.5 8.3125 C4.4375 10.1875 4.4375 10.1875 2.5 11.3125 C-3.94444444 10.86805556 -3.94444444 10.86805556 -5.5 9.3125 C-5.6875 5.875 -5.6875 5.875 -5.5 2.3125 C-3.5 0.3125 -3.5 0.3125 0 0 Z " fill="#100942" transform="translate(88.5,219.6875)"/>
<path d="M0 0 C1.7325 0.1546875 1.7325 0.1546875 3.5 0.3125 C5.65502531 3.54503796 5.96856135 4.56400923 5.5 8.3125 C4.4375 10.1875 4.4375 10.1875 2.5 11.3125 C-3.94444444 10.86805556 -3.94444444 10.86805556 -5.5 9.3125 C-5.6875 5.875 -5.6875 5.875 -5.5 2.3125 C-3.5 0.3125 -3.5 0.3125 0 0 Z " fill="#100942" transform="translate(33.5,219.6875)"/>
<path d="M0 0 C1.875 1.0625 1.875 1.0625 3 3 C2.6875 6.6875 2.6875 6.6875 2 10 C-0.1875 11.1875 -0.1875 11.1875 -3 12 C-5.8125 11 -5.8125 11 -8 9 C-8.54024299 5.75854208 -8.58904542 3.93007172 -6.8125 1.125 C-4.34492892 -0.40659584 -2.85480169 -0.42822025 0 0 Z " fill="#110942" transform="translate(311,192)"/>
<path d="M0 0 C1.875 1.0625 1.875 1.0625 3 3 C2.6875 6.6875 2.6875 6.6875 2 10 C-0.1875 11.1875 -0.1875 11.1875 -3 12 C-5.8125 11 -5.8125 11 -8 9 C-8.54024299 5.75854208 -8.58904542 3.93007172 -6.8125 1.125 C-4.34492892 -0.40659584 -2.85480169 -0.42822025 0 0 Z " fill="#110942" transform="translate(256,192)"/>
<path d="M0 0 C1.875 1.0625 1.875 1.0625 3 3 C2.6875 6.6875 2.6875 6.6875 2 10 C-0.1875 11.1875 -0.1875 11.1875 -3 12 C-5.8125 11 -5.8125 11 -8 9 C-8.54024299 5.75854208 -8.58904542 3.93007172 -6.8125 1.125 C-4.34492892 -0.40659584 -2.85480169 -0.42822025 0 0 Z " fill="#110942" transform="translate(201,192)"/>
<path d="M0 0 C1.875 1.0625 1.875 1.0625 3 3 C2.6875 6.6875 2.6875 6.6875 2 10 C-0.1875 11.1875 -0.1875 11.1875 -3 12 C-5.8125 11 -5.8125 11 -8 9 C-8.54024299 5.75854208 -8.58904542 3.93007172 -6.8125 1.125 C-4.34492892 -0.40659584 -2.85480169 -0.42822025 0 0 Z " fill="#110942" transform="translate(146,192)"/>
<path d="M0 0 C1.875 1.0625 1.875 1.0625 3 3 C2.6875 6.6875 2.6875 6.6875 2 10 C-0.1875 11.1875 -0.1875 11.1875 -3 12 C-5.8125 11 -5.8125 11 -8 9 C-8.54024299 5.75854208 -8.58904542 3.93007172 -6.8125 1.125 C-4.34492892 -0.40659584 -2.85480169 -0.42822025 0 0 Z " fill="#110942" transform="translate(91,192)"/>
<path d="M0 0 C1.875 1.0625 1.875 1.0625 3 3 C2.6875 6.6875 2.6875 6.6875 2 10 C-0.1875 11.1875 -0.1875 11.1875 -3 12 C-5.8125 11 -5.8125 11 -8 9 C-8.54024299 5.75854208 -8.58904542 3.93007172 -6.8125 1.125 C-4.34492892 -0.40659584 -2.85480169 -0.42822025 0 0 Z " fill="#110942" transform="translate(36,192)"/>
<path d="M0 0 C1.7325 0.1546875 1.7325 0.1546875 3.5 0.3125 C5.65502531 3.54503796 5.96856135 4.56400923 5.5 8.3125 C4.4375 10.1875 4.4375 10.1875 2.5 11.3125 C-3.94444444 10.86805556 -3.94444444 10.86805556 -5.5 9.3125 C-5.6875 5.875 -5.6875 5.875 -5.5 2.3125 C-3.5 0.3125 -3.5 0.3125 0 0 Z " fill="#100942" transform="translate(308.5,164.6875)"/>
<path d="M0 0 C1.7325 0.1546875 1.7325 0.1546875 3.5 0.3125 C5.65502531 3.54503796 5.96856135 4.56400923 5.5 8.3125 C4.4375 10.1875 4.4375 10.1875 2.5 11.3125 C-3.94444444 10.86805556 -3.94444444 10.86805556 -5.5 9.3125 C-5.6875 5.875 -5.6875 5.875 -5.5 2.3125 C-3.5 0.3125 -3.5 0.3125 0 0 Z " fill="#100942" transform="translate(253.5,164.6875)"/>
<path d="M0 0 C1.7325 0.1546875 1.7325 0.1546875 3.5 0.3125 C5.65502531 3.54503796 5.96856135 4.56400923 5.5 8.3125 C4.4375 10.1875 4.4375 10.1875 2.5 11.3125 C-3.94444444 10.86805556 -3.94444444 10.86805556 -5.5 9.3125 C-5.6875 5.875 -5.6875 5.875 -5.5 2.3125 C-3.5 0.3125 -3.5 0.3125 0 0 Z " fill="#100942" transform="translate(198.5,164.6875)"/>
<path d="M0 0 C1.7325 0.1546875 1.7325 0.1546875 3.5 0.3125 C5.65502531 3.54503796 5.96856135 4.56400923 5.5 8.3125 C4.4375 10.1875 4.4375 10.1875 2.5 11.3125 C-3.94444444 10.86805556 -3.94444444 10.86805556 -5.5 9.3125 C-5.6875 5.875 -5.6875 5.875 -5.5 2.3125 C-3.5 0.3125 -3.5 0.3125 0 0 Z " fill="#100942" transform="translate(143.5,164.6875)"/>
<path d="M0 0 C1.7325 0.1546875 1.7325 0.1546875 3.5 0.3125 C5.65502531 3.54503796 5.96856135 4.56400923 5.5 8.3125 C4.4375 10.1875 4.4375 10.1875 2.5 11.3125 C-3.94444444 10.86805556 -3.94444444 10.86805556 -5.5 9.3125 C-5.6875 5.875 -5.6875 5.875 -5.5 2.3125 C-3.5 0.3125 -3.5 0.3125 0 0 Z " fill="#100942" transform="translate(88.5,164.6875)"/>
<path d="M0 0 C1.7325 0.1546875 1.7325 0.1546875 3.5 0.3125 C5.65502531 3.54503796 5.96856135 4.56400923 5.5 8.3125 C4.4375 10.1875 4.4375 10.1875 2.5 11.3125 C-3.94444444 10.86805556 -3.94444444 10.86805556 -5.5 9.3125 C-5.6875 5.875 -5.6875 5.875 -5.5 2.3125 C-3.5 0.3125 -3.5 0.3125 0 0 Z " fill="#100942" transform="translate(33.5,164.6875)"/>
<path d="M0 0 C1.875 1.0625 1.875 1.0625 3 3 C2.6875 6.6875 2.6875 6.6875 2 10 C-0.1875 11.1875 -0.1875 11.1875 -3 12 C-5.8125 11 -5.8125 11 -8 9 C-8.54024299 5.75854208 -8.58904542 3.93007172 -6.8125 1.125 C-4.34492892 -0.40659584 -2.85480169 -0.42822025 0 0 Z " fill="#110942" transform="translate(311,137)"/>
<path d="M0 0 C1.875 1.0625 1.875 1.0625 3 3 C2.6875 6.6875 2.6875 6.6875 2 10 C-0.1875 11.1875 -0.1875 11.1875 -3 12 C-5.8125 11 -5.8125 11 -8 9 C-8.54024299 5.75854208 -8.58904542 3.93007172 -6.8125 1.125 C-4.34492892 -0.40659584 -2.85480169 -0.42822025 0 0 Z " fill="#110942" transform="translate(256,137)"/>
<path d="M0 0 C1.875 1.0625 1.875 1.0625 3 3 C2.6875 6.6875 2.6875 6.6875 2 10 C-0.1875 11.1875 -0.1875 11.1875 -3 12 C-5.8125 11 -5.8125 11 -8 9 C-8.54024299 5.75854208 -8.58904542 3.93007172 -6.8125 1.125 C-4.34492892 -0.40659584 -2.85480169 -0.42822025 0 0 Z " fill="#110942" transform="translate(201,137)"/>
<path d="M0 0 C1.875 1.0625 1.875 1.0625 3 3 C2.6875 6.6875 2.6875 6.6875 2 10 C-0.1875 11.1875 -0.1875 11.1875 -3 12 C-5.8125 11 -5.8125 11 -8 9 C-8.54024299 5.75854208 -8.58904542 3.93007172 -6.8125 1.125 C-4.34492892 -0.40659584 -2.85480169 -0.42822025 0 0 Z " fill="#110942" transform="translate(146,137)"/>
<path d="M0 0 C1.875 1.0625 1.875 1.0625 3 3 C2.6875 6.6875 2.6875 6.6875 2 10 C-0.1875 11.1875 -0.1875 11.1875 -3 12 C-5.8125 11 -5.8125 11 -8 9 C-8.54024299 5.75854208 -8.58904542 3.93007172 -6.8125 1.125 C-4.34492892 -0.40659584 -2.85480169 -0.42822025 0 0 Z " fill="#110942" transform="translate(91,137)"/>
<path d="M0 0 C1.875 1.0625 1.875 1.0625 3 3 C2.6875 6.6875 2.6875 6.6875 2 10 C-0.1875 11.1875 -0.1875 11.1875 -3 12 C-5.8125 11 -5.8125 11 -8 9 C-8.54024299 5.75854208 -8.58904542 3.93007172 -6.8125 1.125 C-4.34492892 -0.40659584 -2.85480169 -0.42822025 0 0 Z " fill="#110942" transform="translate(36,137)"/>
<path d="M0 0 C1.7325 0.1546875 1.7325 0.1546875 3.5 0.3125 C5.65502531 3.54503796 5.96856135 4.56400923 5.5 8.3125 C4.4375 10.1875 4.4375 10.1875 2.5 11.3125 C-3.94444444 10.86805556 -3.94444444 10.86805556 -5.5 9.3125 C-5.6875 5.875 -5.6875 5.875 -5.5 2.3125 C-3.5 0.3125 -3.5 0.3125 0 0 Z " fill="#100942" transform="translate(308.5,109.6875)"/>
<path d="M0 0 C1.7325 0.1546875 1.7325 0.1546875 3.5 0.3125 C5.65502531 3.54503796 5.96856135 4.56400923 5.5 8.3125 C4.4375 10.1875 4.4375 10.1875 2.5 11.3125 C-3.94444444 10.86805556 -3.94444444 10.86805556 -5.5 9.3125 C-5.6875 5.875 -5.6875 5.875 -5.5 2.3125 C-3.5 0.3125 -3.5 0.3125 0 0 Z " fill="#100942" transform="translate(253.5,109.6875)"/>
<path d="M0 0 C1.7325 0.1546875 1.7325 0.1546875 3.5 0.3125 C5.65502531 3.54503796 5.96856135 4.56400923 5.5 8.3125 C4.4375 10.1875 4.4375 10.1875 2.5 11.3125 C-3.94444444 10.86805556 -3.94444444 10.86805556 -5.5 9.3125 C-5.6875 5.875 -5.6875 5.875 -5.5 2.3125 C-3.5 0.3125 -3.5 0.3125 0 0 Z " fill="#100942" transform="translate(198.5,109.6875)"/>
<path d="M0 0 C1.7325 0.1546875 1.7325 0.1546875 3.5 0.3125 C5.65502531 3.54503796 5.96856135 4.56400923 5.5 8.3125 C4.4375 10.1875 4.4375 10.1875 2.5 11.3125 C-3.94444444 10.86805556 -3.94444444 10.86805556 -5.5 9.3125 C-5.6875 5.875 -5.6875 5.875 -5.5 2.3125 C-3.5 0.3125 -3.5 0.3125 0 0 Z " fill="#100942" transform="translate(143.5,109.6875)"/>
<path d="M0 0 C1.7325 0.1546875 1.7325 0.1546875 3.5 0.3125 C5.65502531 3.54503796 5.96856135 4.56400923 5.5 8.3125 C4.4375 10.1875 4.4375 10.1875 2.5 11.3125 C-3.94444444 10.86805556 -3.94444444 10.86805556 -5.5 9.3125 C-5.6875 5.875 -5.6875 5.875 -5.5 2.3125 C-3.5 0.3125 -3.5 0.3125 0 0 Z " fill="#100942" transform="translate(88.5,109.6875)"/>
<path d="M0 0 C1.7325 0.1546875 1.7325 0.1546875 3.5 0.3125 C5.65502531 3.54503796 5.96856135 4.56400923 5.5 8.3125 C4.4375 10.1875 4.4375 10.1875 2.5 11.3125 C-3.94444444 10.86805556 -3.94444444 10.86805556 -5.5 9.3125 C-5.6875 5.875 -5.6875 5.875 -5.5 2.3125 C-3.5 0.3125 -3.5 0.3125 0 0 Z " fill="#100942" transform="translate(33.5,109.6875)"/>
<path d="M0 0 C1.875 1.0625 1.875 1.0625 3 3 C2.6875 6.6875 2.6875 6.6875 2 10 C-0.1875 11.1875 -0.1875 11.1875 -3 12 C-5.8125 11 -5.8125 11 -8 9 C-8.54024299 5.75854208 -8.58904542 3.93007172 -6.8125 1.125 C-4.34492892 -0.40659584 -2.85480169 -0.42822025 0 0 Z " fill="#110942" transform="translate(311,82)"/>
<path d="M0 0 C1.875 1.0625 1.875 1.0625 3 3 C2.6875 6.6875 2.6875 6.6875 2 10 C-0.1875 11.1875 -0.1875 11.1875 -3 12 C-5.8125 11 -5.8125 11 -8 9 C-8.54024299 5.75854208 -8.58904542 3.93007172 -6.8125 1.125 C-4.34492892 -0.40659584 -2.85480169 -0.42822025 0 0 Z " fill="#110942" transform="translate(256,82)"/>
<path d="M0 0 C1.875 1.0625 1.875 1.0625 3 3 C2.6875 6.6875 2.6875 6.6875 2 10 C-0.1875 11.1875 -0.1875 11.1875 -3 12 C-5.8125 11 -5.8125 11 -8 9 C-8.54024299 5.75854208 -8.58904542 3.93007172 -6.8125 1.125 C-4.34492892 -0.40659584 -2.85480169 -0.42822025 0 0 Z " fill="#110942" transform="translate(201,82)"/>
<path d="M0 0 C1.875 1.0625 1.875 1.0625 3 3 C2.6875 6.6875 2.6875 6.6875 2 10 C-0.1875 11.1875 -0.1875 11.1875 -3 12 C-5.8125 11 -5.8125 11 -8 9 C-8.54024299 5.75854208 -8.58904542 3.93007172 -6.8125 1.125 C-4.34492892 -0.40659584 -2.85480169 -0.42822025 0 0 Z " fill="#110942" transform="translate(146,82)"/>
<path d="M0 0 C1.875 1.0625 1.875 1.0625 3 3 C2.6875 6.6875 2.6875 6.6875 2 10 C-0.1875 11.1875 -0.1875 11.1875 -3 12 C-5.8125 11 -5.8125 11 -8 9 C-8.54024299 5.75854208 -8.58904542 3.93007172 -6.8125 1.125 C-4.34492892 -0.40659584 -2.85480169 -0.42822025 0 0 Z " fill="#110942" transform="translate(91,82)"/>
<path d="M0 0 C1.875 1.0625 1.875 1.0625 3 3 C2.6875 6.6875 2.6875 6.6875 2 10 C-0.1875 11.1875 -0.1875 11.1875 -3 12 C-5.8125 11 -5.8125 11 -8 9 C-8.54024299 5.75854208 -8.58904542 3.93007172 -6.8125 1.125 C-4.34492892 -0.40659584 -2.85480169 -0.42822025 0 0 Z " fill="#110942" transform="translate(36,82)"/>
<path d="M0 0 C1.7325 0.1546875 1.7325 0.1546875 3.5 0.3125 C5.65502531 3.54503796 5.96856135 4.56400923 5.5 8.3125 C4.4375 10.1875 4.4375 10.1875 2.5 11.3125 C-3.94444444 10.86805556 -3.94444444 10.86805556 -5.5 9.3125 C-5.6875 5.875 -5.6875 5.875 -5.5 2.3125 C-3.5 0.3125 -3.5 0.3125 0 0 Z " fill="#100942" transform="translate(308.5,54.6875)"/>
<path d="M0 0 C1.7325 0.1546875 1.7325 0.1546875 3.5 0.3125 C5.65502531 3.54503796 5.96856135 4.56400923 5.5 8.3125 C4.4375 10.1875 4.4375 10.1875 2.5 11.3125 C-3.94444444 10.86805556 -3.94444444 10.86805556 -5.5 9.3125 C-5.6875 5.875 -5.6875 5.875 -5.5 2.3125 C-3.5 0.3125 -3.5 0.3125 0 0 Z " fill="#100942" transform="translate(253.5,54.6875)"/>
<path d="M0 0 C1.7325 0.1546875 1.7325 0.1546875 3.5 0.3125 C5.65502531 3.54503796 5.96856135 4.56400923 5.5 8.3125 C4.4375 10.1875 4.4375 10.1875 2.5 11.3125 C-3.94444444 10.86805556 -3.94444444 10.86805556 -5.5 9.3125 C-5.6875 5.875 -5.6875 5.875 -5.5 2.3125 C-3.5 0.3125 -3.5 0.3125 0 0 Z " fill="#100942" transform="translate(198.5,54.6875)"/>
<path d="M0 0 C1.7325 0.1546875 1.7325 0.1546875 3.5 0.3125 C5.65502531 3.54503796 5.96856135 4.56400923 5.5 8.3125 C4.4375 10.1875 4.4375 10.1875 2.5 11.3125 C-3.94444444 10.86805556 -3.94444444 10.86805556 -5.5 9.3125 C-5.6875 5.875 -5.6875 5.875 -5.5 2.3125 C-3.5 0.3125 -3.5 0.3125 0 0 Z " fill="#100942" transform="translate(143.5,54.6875)"/>
<path d="M0 0 C1.7325 0.1546875 1.7325 0.1546875 3.5 0.3125 C5.65502531 3.54503796 5.96856135 4.56400923 5.5 8.3125 C4.4375 10.1875 4.4375 10.1875 2.5 11.3125 C-3.94444444 10.86805556 -3.94444444 10.86805556 -5.5 9.3125 C-5.6875 5.875 -5.6875 5.875 -5.5 2.3125 C-3.5 0.3125 -3.5 0.3125 0 0 Z " fill="#100942" transform="translate(88.5,54.6875)"/>
<path d="M0 0 C1.7325 0.1546875 1.7325 0.1546875 3.5 0.3125 C5.65502531 3.54503796 5.96856135 4.56400923 5.5 8.3125 C4.4375 10.1875 4.4375 10.1875 2.5 11.3125 C-3.94444444 10.86805556 -3.94444444 10.86805556 -5.5 9.3125 C-5.6875 5.875 -5.6875 5.875 -5.5 2.3125 C-3.5 0.3125 -3.5 0.3125 0 0 Z " fill="#100942" transform="translate(33.5,54.6875)"/>
<path d="M0 0 C1.875 1.0625 1.875 1.0625 3 3 C2.6875 6.6875 2.6875 6.6875 2 10 C-0.1875 11.1875 -0.1875 11.1875 -3 12 C-5.8125 11 -5.8125 11 -8 9 C-8.54024299 5.75854208 -8.58904542 3.93007172 -6.8125 1.125 C-4.34492892 -0.40659584 -2.85480169 -0.42822025 0 0 Z " fill="#110942" transform="translate(311,27)"/>
<path d="M0 0 C1.875 1.0625 1.875 1.0625 3 3 C2.6875 6.6875 2.6875 6.6875 2 10 C-0.1875 11.1875 -0.1875 11.1875 -3 12 C-5.8125 11 -5.8125 11 -8 9 C-8.54024299 5.75854208 -8.58904542 3.93007172 -6.8125 1.125 C-4.34492892 -0.40659584 -2.85480169 -0.42822025 0 0 Z " fill="#110942" transform="translate(256,27)"/>
<path d="M0 0 C1.875 1.0625 1.875 1.0625 3 3 C2.6875 6.6875 2.6875 6.6875 2 10 C-0.1875 11.1875 -0.1875 11.1875 -3 12 C-5.8125 11 -5.8125 11 -8 9 C-8.54024299 5.75854208 -8.58904542 3.93007172 -6.8125 1.125 C-4.34492892 -0.40659584 -2.85480169 -0.42822025 0 0 Z " fill="#110942" transform="translate(201,27)"/>
<path d="M0 0 C1.875 1.0625 1.875 1.0625 3 3 C2.6875 6.6875 2.6875 6.6875 2 10 C-0.1875 11.1875 -0.1875 11.1875 -3 12 C-5.8125 11 -5.8125 11 -8 9 C-8.54024299 5.75854208 -8.58904542 3.93007172 -6.8125 1.125 C-4.34492892 -0.40659584 -2.85480169 -0.42822025 0 0 Z " fill="#110942" transform="translate(146,27)"/>
<path d="M0 0 C1.875 1.0625 1.875 1.0625 3 3 C2.6875 6.6875 2.6875 6.6875 2 10 C-0.1875 11.1875 -0.1875 11.1875 -3 12 C-5.8125 11 -5.8125 11 -8 9 C-8.54024299 5.75854208 -8.58904542 3.93007172 -6.8125 1.125 C-4.34492892 -0.40659584 -2.85480169 -0.42822025 0 0 Z " fill="#110942" transform="translate(91,27)"/>
<path d="M0 0 C1.875 1.0625 1.875 1.0625 3 3 C2.6875 6.6875 2.6875 6.6875 2 10 C-0.1875 11.1875 -0.1875 11.1875 -3 12 C-5.8125 11 -5.8125 11 -8 9 C-8.54024299 5.75854208 -8.58904542 3.93007172 -6.8125 1.125 C-4.34492892 -0.40659584 -2.85480169 -0.42822025 0 0 Z " fill="#110942" transform="translate(36,27)"/>
<path d="M0 0 C1.7325 0.1546875 1.7325 0.1546875 3.5 0.3125 C5.65502531 3.54503796 5.96856135 4.56400923 5.5 8.3125 C4.4375 10.1875 4.4375 10.1875 2.5 11.3125 C-3.94444444 10.86805556 -3.94444444 10.86805556 -5.5 9.3125 C-5.6875 5.875 -5.6875 5.875 -5.5 2.3125 C-3.5 0.3125 -3.5 0.3125 0 0 Z " fill="#100942" transform="translate(308.5,-0.3125)"/>
<path d="M0 0 C1.7325 0.1546875 1.7325 0.1546875 3.5 0.3125 C5.65502531 3.54503796 5.96856135 4.56400923 5.5 8.3125 C4.4375 10.1875 4.4375 10.1875 2.5 11.3125 C-3.94444444 10.86805556 -3.94444444 10.86805556 -5.5 9.3125 C-5.6875 5.875 -5.6875 5.875 -5.5 2.3125 C-3.5 0.3125 -3.5 0.3125 0 0 Z " fill="#100942" transform="translate(253.5,-0.3125)"/>
<path d="M0 0 C1.7325 0.1546875 1.7325 0.1546875 3.5 0.3125 C5.65502531 3.54503796 5.96856135 4.56400923 5.5 8.3125 C4.4375 10.1875 4.4375 10.1875 2.5 11.3125 C-3.94444444 10.86805556 -3.94444444 10.86805556 -5.5 9.3125 C-5.6875 5.875 -5.6875 5.875 -5.5 2.3125 C-3.5 0.3125 -3.5 0.3125 0 0 Z " fill="#100942" transform="translate(198.5,-0.3125)"/>
<path d="M0 0 C1.7325 0.1546875 1.7325 0.1546875 3.5 0.3125 C5.65502531 3.54503796 5.96856135 4.56400923 5.5 8.3125 C4.4375 10.1875 4.4375 10.1875 2.5 11.3125 C-3.94444444 10.86805556 -3.94444444 10.86805556 -5.5 9.3125 C-5.6875 5.875 -5.6875 5.875 -5.5 2.3125 C-3.5 0.3125 -3.5 0.3125 0 0 Z " fill="#100942" transform="translate(143.5,-0.3125)"/>
<path d="M0 0 C1.7325 0.1546875 1.7325 0.1546875 3.5 0.3125 C5.65502531 3.54503796 5.96856135 4.56400923 5.5 8.3125 C4.4375 10.1875 4.4375 10.1875 2.5 11.3125 C-3.94444444 10.86805556 -3.94444444 10.86805556 -5.5 9.3125 C-5.6875 5.875 -5.6875 5.875 -5.5 2.3125 C-3.5 0.3125 -3.5 0.3125 0 0 Z " fill="#100942" transform="translate(88.5,-0.3125)"/>
<path d="M0 0 C1.7325 0.1546875 1.7325 0.1546875 3.5 0.3125 C5.65502531 3.54503796 5.96856135 4.56400923 5.5 8.3125 C4.4375 10.1875 4.4375 10.1875 2.5 11.3125 C-3.94444444 10.86805556 -3.94444444 10.86805556 -5.5 9.3125 C-5.6875 5.875 -5.6875 5.875 -5.5 2.3125 C-3.5 0.3125 -3.5 0.3125 0 0 Z " fill="#100942" transform="translate(33.5,-0.3125)"/>
</svg>
