<svg xmlns="http://www.w3.org/2000/svg" width="242" height="244" viewBox="0 0 242 244" fill="none">
  <path d="M40.0027 194.005C40.0027 202.595 42.17 210.68 45.9984 217.737C46.8874 219.41 47.8955 221.03 48.9786 222.585C52.0992 227.077 55.9609 231.035 60.3673 234.263C60.3898 234.295 60.4209 234.306 60.4434 234.327C60.7319 234.54 61.0226 234.756 61.3228 234.949C66.748 238.767 72.9679 241.523 79.681 242.928C83.0065 243.636 86.4585 244 89.9974 244C98.1154 244 105.772 242.07 112.55 238.628C116.465 236.654 120.078 234.177 123.316 231.282C125.055 229.715 126.696 228.043 128.207 226.252C128.894 225.448 129.547 224.621 130.169 223.775C131.832 221.544 133.312 219.174 134.587 216.676C138.052 209.866 140.003 202.166 140.003 194.005C140.003 166.391 117.611 144 89.9974 144C62.3952 144 40.0027 166.391 40.0027 194.005Z" fill="#F7F5FF"/>
  <path d="M74.8586 182.139C75.6403 178.644 78.2795 176.26 80.7524 176.812L82.0393 177.005C82.1958 177.018 82.3513 177.04 82.5068 177.074C84.9787 177.628 86.3503 180.91 85.5674 184.405C84.7856 187.901 82.1465 190.286 79.6736 189.733L78.3856 189.541C78.2301 189.529 78.0746 189.506 77.9181 189.471C75.4473 188.917 74.0757 185.635 74.8586 182.139Z" fill="#FFAF45"/>
  <path d="M45.9985 217.737C46.8875 219.41 47.8956 221.03 48.9787 222.585C52.0994 227.077 55.961 231.035 60.3674 234.263C60.3899 234.295 60.421 234.306 60.4436 234.327C60.732 234.54 61.0227 234.756 61.3229 234.949C66.7481 238.767 72.968 241.523 79.6811 242.928C83.0066 243.636 86.4586 244 89.9975 244C98.1155 244 105.772 242.07 112.55 238.628C116.465 236.654 120.078 234.177 123.317 231.282C125.055 229.715 126.696 228.043 128.207 226.252C128.894 225.448 129.547 224.621 130.169 223.775C122.223 214.208 115.231 212.279 115.231 212.279C115.456 212.032 117.912 209.137 115.231 203.925C111.703 197.04 100.744 192.783 100.744 192.783L81.398 191.635C81.398 191.635 73.2586 192.224 67.2318 199.152C62.2441 204.858 63.1342 208.483 63.6071 209.587C63.6929 209.823 63.7776 209.941 63.7776 209.941C63.7776 209.941 55.4248 212.686 45.9985 217.737Z" fill="#8758E7"/>
  <path d="M63.6038 209.585C67.6178 212.123 74.0468 215.302 83.1181 217.293C100.082 221.039 115.231 212.278 115.231 212.278C115.458 212.03 117.914 209.141 115.231 203.919C111.701 197.037 100.744 192.785 100.744 192.785L81.3947 191.64C81.3947 191.64 73.2628 192.227 67.2263 199.151C62.2419 204.859 63.1288 208.481 63.6038 209.585Z" fill="#ADA4F7"/>
  <path d="M97.9341 205.494C97.9341 205.494 105.599 201.493 105.142 199.153C104.683 196.814 97.2434 195.245 92.4788 196.144C87.7131 197.043 76.4445 197.183 76.4445 201.284C76.4445 204.908 81.6156 208.396 81.6156 208.396L92.4788 205.262L97.9341 205.494Z" fill="#8758E7"/>
  <path d="M98.2012 193.498L97.9342 205.494C97.9342 205.494 95.6951 208.894 88.6634 209.309C83.4259 209.618 81.6157 208.397 81.6157 208.397L82.4789 202.336L83.3294 196.426L96.064 193.921L98.2012 193.498Z" fill="#FC8165"/>
  <path d="M96.0639 193.922C96.0264 194.248 95.8934 194.633 95.6897 195.072C92.8725 201.004 85.5052 202.133 82.4789 202.336L83.3293 196.427L96.0639 193.922Z" fill="black"/>
  <path d="M81.2629 169.023C81.2629 169.023 74.6323 183.924 76.9294 192.336C79.2243 200.747 86.8833 199.477 91.471 197.885C96.0587 196.291 98.2024 193.5 98.2024 193.5C98.2024 193.5 102.467 194.978 105.354 191.021C108.241 187.065 106.511 182.488 104.076 181.425C101.643 180.362 98.7278 182.106 98.7278 182.106L101.031 177.778C101.031 177.778 91.6072 155.642 81.2629 169.023Z" fill="#FC8165"/>
  <path d="M81.8249 188.076C81.5954 188.076 81.3841 187.93 81.3123 187.699C80.3149 184.475 82.583 181.201 82.6796 181.063C82.8501 180.822 83.1836 180.763 83.4259 180.933C83.6683 181.104 83.7262 181.438 83.5568 181.679C83.5364 181.71 81.4967 184.667 82.3375 187.382C82.4254 187.664 82.2656 187.966 81.9825 188.053C81.931 188.069 81.8774 188.076 81.8249 188.076Z" fill="black"/>
  <path d="M99.3626 189.156C99.235 189.156 99.1074 189.109 99.0077 189.015C98.8007 188.82 98.7911 188.494 98.9873 188.286L103.047 183.984C103.243 183.777 103.569 183.768 103.777 183.963C103.984 184.158 103.993 184.485 103.797 184.692L99.7369 188.994C99.635 189.101 99.4988 189.156 99.3626 189.156Z" fill="black"/>
  <path d="M103.661 188.002C103.635 188.002 103.608 188 103.582 187.996L100.774 187.57C100.492 187.527 100.299 187.263 100.342 186.982C100.383 186.699 100.647 186.502 100.928 186.549L103.738 186.976C104.019 187.019 104.213 187.281 104.17 187.563C104.131 187.818 103.912 188.002 103.661 188.002Z" fill="black"/>
  <path d="M98.7276 182.106C98.7276 182.106 97.1844 183.118 96.0638 181.363C94.942 179.61 97.3957 174.427 97.3957 174.427C97.3957 174.427 92.7683 175.477 89.9083 173.947C87.0471 172.416 85.6444 168.205 85.6444 168.205C85.6444 168.205 83.5394 172.592 77.222 170.662C70.9056 168.732 69.7013 160.135 76.4445 158.38C83.1887 156.626 86.8723 159.608 86.8723 159.608C86.8723 159.608 87.727 153.369 96.0638 156.45C103.659 159.257 104.944 168.772 104.944 168.772C104.944 168.772 109.506 168.986 110.383 173.947C111.26 178.908 105.455 182.498 105.455 182.498C105.455 182.498 102.16 180.564 98.7276 182.106Z" fill="black"/>
  <path d="M88.597 182.502C88.5745 182.502 88.5509 182.501 88.5283 182.498C88.2356 182.461 88.0265 182.192 88.064 181.898L88.419 179.114C88.4576 178.819 88.7289 178.605 89.0195 178.649C89.3123 178.687 89.5214 178.955 89.4839 179.25L89.1289 182.034C89.0935 182.304 88.8629 182.502 88.597 182.502Z" fill="black"/>
  <path d="M80.3297 181.838C80.304 181.838 80.2783 181.836 80.2515 181.832C79.9587 181.788 79.7549 181.516 79.7978 181.224L80.2064 178.447C80.2503 178.153 80.5324 177.958 80.8155 177.993C81.1083 178.037 81.312 178.31 81.2681 178.601L80.8605 181.379C80.8198 181.646 80.5914 181.838 80.3297 181.838Z" fill="black"/>
  <path d="M91.1899 177.166C90.9969 177.166 90.8081 177.06 90.7137 176.874C90.0521 175.589 88.2344 175.967 88.2129 175.968C87.9223 176.032 87.6371 175.847 87.5759 175.557C87.5137 175.269 87.6971 174.983 87.9867 174.922C88.0961 174.898 90.6354 174.372 91.6671 176.384C91.8033 176.648 91.6992 176.971 91.4354 177.106C91.3571 177.147 91.2735 177.166 91.1899 177.166Z" fill="black"/>
  <path d="M83.118 175.444C82.9475 175.444 82.7802 175.363 82.6761 175.21C82.4284 174.849 82.141 174.654 81.8 174.611C80.9582 174.506 80.0434 175.301 80.0338 175.309C79.8128 175.507 79.474 175.487 79.2777 175.263C79.0804 175.042 79.1018 174.703 79.3238 174.507C79.3753 174.461 80.6128 173.383 81.9308 173.546C82.5871 173.628 83.1351 173.984 83.5598 174.606C83.727 174.849 83.6659 175.184 83.4204 175.35C83.3281 175.415 83.2231 175.444 83.118 175.444Z" fill="black"/>
  <path d="M89.6458 219.162C89.3627 219.162 89.1268 218.941 89.1107 218.656C89.0935 218.36 89.3198 218.107 89.6158 218.091C105.172 217.219 111.363 213.59 111.424 213.553C111.678 213.401 112.007 213.482 112.159 213.735C112.313 213.988 112.232 214.317 111.979 214.472C111.724 214.626 105.547 218.273 89.6758 219.161C89.6662 219.162 89.6554 219.162 89.6458 219.162Z" fill="#50447E"/>
  <path d="M68.2204 233.355C68.1282 233.355 68.0338 233.331 67.948 233.281C67.6928 233.131 67.6081 232.801 67.7593 232.546L74.1797 221.689C74.332 221.435 74.6601 221.352 74.9154 221.5C75.1695 221.651 75.2542 221.981 75.103 222.236L68.6826 233.093C68.5818 233.261 68.4038 233.355 68.2204 233.355Z" fill="#50447E"/>
  <path d="M89.117 236.439C88.8747 236.439 88.6559 236.277 88.5958 236.031L85.5846 223.782C85.5128 223.496 85.6897 223.204 85.9771 223.134C86.2709 223.064 86.5551 223.239 86.6259 223.527L89.6371 235.776C89.709 236.062 89.5331 236.354 89.2447 236.424C89.2018 236.434 89.1589 236.439 89.117 236.439Z" fill="#50447E"/>
  <path d="M68.2205 212.811C68.1357 212.811 68.0511 212.79 67.9706 212.748L63.5288 210.409C63.2671 210.272 63.1674 209.948 63.3047 209.686C63.4441 209.423 63.7647 209.325 64.0296 209.461L68.4714 211.799C68.7331 211.938 68.8339 212.261 68.6955 212.524C68.599 212.707 68.4135 212.811 68.2205 212.811Z" fill="#50447E"/>
  <path d="M95.4311 186.515C94.9764 190.069 96.644 193.209 99.1576 193.532C101.671 193.854 104.078 191.235 104.532 187.682C104.988 184.129 103.32 180.987 100.806 180.665C98.2933 180.343 95.8868 182.963 95.4311 186.515Z" fill="#FFAF45"/>
  <path d="M100.806 180.666L102.545 181.016L100.896 193.883L99.1577 193.532L97.2596 191.49L96.7073 184.357L100.806 180.666Z" fill="#FFAF45"/>
  <path d="M97.1706 186.867C96.7159 190.42 98.3835 193.562 100.896 193.883C103.41 194.206 105.816 191.587 106.272 188.033C106.728 184.481 105.059 181.34 102.545 181.017C100.033 180.695 97.6253 183.315 97.1706 186.867Z" fill="#80BAFF"/>
  <path d="M103.807 164.725C103.807 164.725 105.725 167.022 106.265 169.047C106.804 171.073 103.66 183.857 103.66 183.857L99.6908 182.957L103.807 164.725Z" fill="#80BAFF"/>
  <path d="M85.3796 192.289C85.06 192.289 84.7254 192.248 84.3769 192.157C84.0895 192.083 83.9179 191.789 83.993 191.504C84.068 191.219 84.3554 191.04 84.6471 191.12C86.8187 191.686 88.083 189.627 88.1356 189.539C88.2857 189.285 88.616 189.2 88.8702 189.354C89.1243 189.504 89.208 189.832 89.0579 190.086C88.5592 190.927 87.2284 192.289 85.3796 192.289Z" fill="black"/>
  <path d="M241.997 92.0022C241.997 99.5943 240.303 106.779 237.28 113.224C236.303 115.315 235.178 117.32 233.912 119.239C233.699 119.582 233.473 119.915 233.248 120.247C231.758 122.435 230.094 124.483 228.273 126.402C226.384 128.397 224.337 130.231 222.138 131.893C221.848 132.107 221.559 132.322 221.269 132.536C217.892 134.981 214.193 137.008 210.247 138.552C210.215 138.563 210.193 138.573 210.161 138.584C209.957 138.67 209.753 138.745 209.559 138.82C207.491 139.603 205.346 140.246 203.159 140.75C202.793 140.825 202.44 140.9 202.076 140.975C198.826 141.651 195.459 141.994 192.005 141.994C191.33 141.994 190.665 141.983 190.001 141.951C189.882 141.951 189.776 141.941 189.669 141.941C188.425 141.887 187.18 141.78 185.968 141.63C185.571 141.587 185.176 141.533 184.789 141.479C179.814 140.761 175.107 139.313 170.721 137.244C170.312 137.061 169.916 136.858 169.52 136.654C168.5 136.15 167.514 135.603 166.538 135.024C165.841 134.617 165.166 134.188 164.49 133.748C163.342 132.997 162.239 132.204 161.166 131.357C160.951 131.185 160.737 131.024 160.534 130.842C160.115 130.52 159.719 130.177 159.321 129.834C159 129.566 158.689 129.287 158.389 129.008C155.461 126.36 152.856 123.357 150.625 120.076C150.572 120.001 150.517 119.926 150.464 119.84C150.346 119.668 150.239 119.497 150.132 119.325C144.996 111.486 142.003 102.104 142.003 92.0022C142.003 64.3897 164.393 41.9995 192.005 41.9995C219.608 41.9995 241.997 64.3897 241.997 92.0022Z" fill="#F7F5FF"/>
  <path d="M173.184 89.674C173.184 92.3366 172.197 94.4941 170.98 94.4941C169.763 94.4941 168.777 92.3366 168.777 89.674C168.777 87.0136 169.763 84.855 170.98 84.855C172.197 84.855 173.184 87.0136 173.184 89.674Z" fill="#F74D76"/>
  <path d="M182.778 65.4684C182.778 65.4684 190.127 50.6059 202.547 57.7691C214.967 64.9312 204.566 79.4269 223.337 83.2541C233.11 85.2465 239.219 93.3243 236.703 102.805C234.258 112.017 223.366 112.464 223.366 112.464C223.366 112.464 211.471 129.537 197.89 124.5C184.308 119.466 177.989 111.456 179.116 98.627C180.243 85.7955 182.778 65.4684 182.778 65.4684Z" fill="black"/>
  <path d="M169.534 78.5725C169.534 78.5725 161.633 67.3677 177.187 58.2369C192.74 49.1049 204.335 61.1697 204.556 67.7377C204.778 74.3057 201.082 77.4004 201.082 77.4004C201.082 77.4004 202.739 91.612 189.051 90.8239C175.365 90.0357 169.534 78.5725 169.534 78.5725Z" fill="black"/>
  <path d="M190.328 88.5215L190.776 100.016C190.776 100.016 188.832 103.401 182.129 104.21C177.136 104.812 175.333 103.749 175.333 103.749L175.804 97.9001L176.271 92.1953L188.309 89.0512L190.328 88.5215Z" fill="#FCA397"/>
  <path d="M190.288 87.973C190.27 88.2882 190.165 88.6635 189.996 89.0957C187.647 94.9377 178.687 97.5263 175.804 97.8984L176.271 92.1936L190.288 87.973Z" fill="black"/>
  <path d="M172.687 66.0951C172.687 66.0951 167.216 80.742 169.906 88.6569C172.596 96.5718 179.85 94.9075 184.146 93.1146C188.443 91.3227 190.33 88.5239 190.33 88.5239C190.33 88.5239 194.499 89.6896 197.029 85.7348C199.559 81.779 197.635 77.5004 195.244 76.6265C192.853 75.7525 190.165 77.5905 190.165 77.5905L192.117 73.3151C192.117 73.3151 181.802 52.6856 172.687 66.0951Z" fill="#FCA397"/>
  <path d="M174.066 83.5586C173.812 83.5586 173.586 83.3763 173.54 83.1168C172.667 78.2441 174.544 75.6266 174.624 75.5172C174.8 75.2781 175.135 75.2298 175.374 75.4036C175.612 75.5783 175.663 75.9129 175.488 76.152C175.454 76.1992 173.813 78.5626 174.596 82.927C174.648 83.2187 174.455 83.4975 174.162 83.55C174.131 83.5554 174.099 83.5586 174.066 83.5586Z" fill="black"/>
  <path d="M190.554 83.4824C190.367 83.4824 190.183 83.3816 190.085 83.2047C189.942 82.9452 190.037 82.6192 190.296 82.4766L195.856 79.4183C196.116 79.2768 196.44 79.3701 196.584 79.6306C196.727 79.8891 196.632 80.2161 196.373 80.3577L190.814 83.416C190.73 83.461 190.642 83.4824 190.554 83.4824Z" fill="black"/>
  <path d="M195.787 84.4219C195.665 84.4219 195.542 84.379 195.441 84.2943L192.71 81.9791C192.484 81.7872 192.457 81.4494 192.648 81.2242C192.841 80.9979 193.179 80.9711 193.404 81.1609L196.134 83.4761C196.36 83.668 196.388 84.0058 196.197 84.2321C196.09 84.3565 195.94 84.4219 195.787 84.4219Z" fill="black"/>
  <path d="M169.534 78.5742C169.534 78.5742 170.366 74.1369 174.536 69.0391C178.707 63.9423 178.707 63.9423 178.707 63.9423C178.707 63.9423 178.887 72.9745 183.207 76.5475C187.527 80.1205 190.165 77.5909 190.165 77.5909L197.358 70.2487L182.686 58.6664C182.686 58.6664 167.315 59.2519 169.534 78.5742Z" fill="black"/>
  <path d="M210.161 138.589C209.957 138.675 209.753 138.751 209.56 138.826C204.092 140.885 198.183 142 192.006 142C191.224 142 190.441 141.977 189.669 141.945C180.393 141.517 171.772 138.569 164.49 133.753C163.343 133.002 162.239 132.209 161.166 131.361C160.212 130.612 159.279 129.828 158.389 129.013C158.249 127.792 158.142 126.462 158.067 125.045C157.767 119.727 159.504 114.527 161.434 110.526C163.064 107.106 165.799 104.414 169.155 102.817C170.302 102.258 171.525 101.841 172.801 101.562L176.157 100.832C176.157 100.832 200.767 98.6876 205.239 100.726C205.239 100.726 205.26 100.736 205.303 100.746C205.7 100.941 205.914 101.166 205.936 101.434C206.14 104.081 208.317 122.804 210.161 138.589Z" fill="#ADA4F7"/>
  <path d="M233.913 119.244C233.699 119.587 233.473 119.92 233.248 120.253C231.758 122.441 230.096 124.489 228.273 126.408C223.276 131.684 217.131 135.865 210.247 138.558C210.215 138.569 210.193 138.578 210.161 138.589C209.957 138.675 209.754 138.751 209.56 138.826C204.092 140.885 198.183 142 192.006 142C191.331 142 190.666 141.988 190.001 141.957L205.239 100.726C205.239 100.726 205.26 100.736 205.303 100.746C206.279 101.123 224.809 104.489 233.913 119.244Z" fill="#ADA4F7"/>
  <path d="M175.62 100.185L171.29 101.891C171.29 101.891 170.454 110.494 180.66 110.241C191.372 109.974 199.113 99.8905 199.113 99.8905L189.681 99.1109L175.62 100.185Z" fill="#FCA397"/>
  <path d="M180.182 110.783C177.113 110.783 174.732 109.954 173.091 108.309C170.478 105.691 170.743 102.004 170.755 101.847C170.779 101.553 171.042 101.342 171.332 101.356C171.627 101.38 171.847 101.638 171.824 101.933C171.822 101.967 171.594 105.298 173.857 107.56C175.52 109.22 178.114 109.921 181.569 109.656C192.25 108.818 198.607 99.6803 198.67 99.5881C198.837 99.3447 199.172 99.2835 199.415 99.4476C199.66 99.6149 199.722 99.9484 199.556 100.194C199.286 100.588 192.842 109.847 181.654 110.724C181.147 110.764 180.656 110.783 180.182 110.783Z" fill="white"/>
  <path d="M177.699 87.6445C177.48 87.6445 177.274 87.5083 177.194 87.2896C177.096 87.0108 177.238 86.7041 177.517 86.6044C177.547 86.5926 178.953 86.0543 179.84 84.508C179.987 84.2495 180.315 84.1616 180.572 84.3096C180.828 84.4565 180.917 84.7836 180.77 85.0409C179.674 86.9529 177.953 87.5866 177.881 87.6134C177.821 87.6349 177.759 87.6445 177.699 87.6445Z" fill="black"/>
  <path d="M204.364 71.291C204.058 71.2857 203.822 71.0412 203.828 70.7452C204.041 59.5415 194.822 56.1573 194.43 56.0189C194.151 55.9203 194.004 55.6146 194.102 55.3348C194.199 55.056 194.505 54.909 194.785 55.0066C194.888 55.0431 205.128 58.7705 204.9 70.7656C204.895 71.0583 204.656 71.291 204.364 71.291Z" fill="#FFAF45"/>
  <path d="M169.155 102.805C169.155 102.817 166.539 135.029 166.539 135.029C165.842 134.621 165.166 134.193 164.491 133.752C163.343 133.002 162.239 132.208 161.166 131.361C160.212 130.611 159.279 129.827 158.389 129.012C155.462 126.365 152.856 123.361 150.625 120.08C150.572 120.005 150.518 119.931 150.465 119.845C150.347 119.674 150.239 119.501 150.132 119.329C152.577 116.338 155.612 112.928 158.668 110.247C166.067 103.77 169.155 102.805 169.155 102.805Z" fill="#ADA4F7"/>
  <path d="M165.595 109.66C165.52 109.734 158.582 116.929 160.534 130.848C160.115 130.527 159.719 130.183 159.322 129.84C157.799 116.157 164.512 109.22 164.834 108.908C165.037 108.693 165.381 108.693 165.595 108.908C165.799 109.112 165.799 109.455 165.595 109.66Z" fill="white"/>
  <path d="M170.979 72.125C170.735 72.125 170.514 71.9566 170.457 71.7078C170.392 71.4194 170.573 71.132 170.861 71.0655L173.627 70.4372C173.918 70.3707 174.202 70.553 174.268 70.8414C174.333 71.131 174.152 71.4183 173.864 71.4837L171.098 72.1121C171.059 72.1207 171.019 72.125 170.979 72.125Z" fill="black"/>
  <path d="M181.499 72.4844C181.442 72.4844 181.386 72.4758 181.329 72.4576L177.979 71.3413C177.698 71.248 177.546 70.9445 177.639 70.6625C177.734 70.3815 178.037 70.2357 178.318 70.3236L181.668 71.4399C181.949 71.5332 182.101 71.8367 182.008 72.1176C181.932 72.3428 181.723 72.4844 181.499 72.4844Z" fill="black"/>
  <path d="M171.936 77.541C171.903 77.541 171.871 77.5378 171.838 77.5314C171.547 77.4788 171.354 77.1989 171.407 76.9083L171.788 74.8205L171.061 73.9712C170.868 73.746 170.893 73.4083 171.119 73.2152C171.343 73.0233 171.68 73.049 171.875 73.2731L172.769 74.3165C172.874 74.4388 172.918 74.6028 172.89 74.7615L172.462 77.1003C172.415 77.3598 172.189 77.541 171.936 77.541Z" fill="black"/>
  <path d="M179.61 77.7891C179.578 77.7891 179.546 77.7858 179.513 77.7805C179.222 77.7269 179.028 77.448 179.082 77.1564L179.458 75.1039L178.618 74.3104C178.404 74.1067 178.395 73.7668 178.598 73.5523C178.801 73.3378 179.141 73.3271 179.356 73.5308L180.406 74.5249C180.539 74.6493 180.598 74.8326 180.566 75.0106L180.138 77.3494C180.09 77.6078 179.864 77.7891 179.61 77.7891Z" fill="black"/>
  <path d="M195.787 90.0325C195.787 92.694 194.801 94.8516 193.585 94.8516C192.367 94.8516 191.38 92.694 191.38 90.0325C191.38 87.3699 192.367 85.2124 193.585 85.2124C194.801 85.2124 195.787 87.3699 195.787 90.0325Z" fill="#F74D76"/>
  <path d="M173.402 107.528C173.337 107.689 167.696 123.248 170.721 137.242C170.312 137.06 169.917 136.856 169.52 136.652C166.796 122.562 172.34 107.324 172.394 107.153C172.5 106.874 172.801 106.734 173.079 106.831C173.359 106.938 173.498 107.249 173.402 107.528Z" fill="white"/>
  <path d="M185.968 141.631C185.571 141.588 185.176 141.534 184.789 141.481C183.513 137.138 181.476 127.176 182.506 110.212C182.527 109.922 182.751 109.686 183.074 109.718C183.374 109.729 183.599 109.986 183.578 110.276C182.538 127.583 184.767 137.642 185.968 141.631Z" fill="white"/>
  <path d="M203.159 140.749C202.793 140.824 202.44 140.9 202.076 140.975C198.891 135.248 192.457 122.37 189.755 107.668C189.7 107.379 189.894 107.1 190.193 107.046C190.483 106.993 190.763 107.186 190.816 107.475C193.54 122.295 200.081 135.238 203.159 140.749Z" fill="white"/>
  <path d="M222.138 131.894C221.848 132.108 221.559 132.323 221.269 132.537C218.021 126.039 210.836 112.008 195.695 104.352C195.427 104.214 195.32 103.892 195.459 103.635C195.588 103.367 195.92 103.259 196.178 103.399C211.437 111.108 218.772 125.192 222.138 131.894Z" fill="white"/>
  <path d="M99.9987 49.9982C99.9987 55.2211 99.2051 60.2616 97.7133 64.9912C95.4408 72.2195 91.5799 78.74 86.5287 84.1345C86.4214 84.2632 86.3142 84.3811 86.1962 84.4991C86.0461 84.66 85.8852 84.8209 85.7351 84.971C83.8261 86.9229 81.7455 88.7246 79.5363 90.3333C79.2467 90.5585 78.9571 90.773 78.6558 90.966C70.5384 96.6608 60.661 99.9961 50.0004 99.9961C47.8342 99.9961 45.6783 99.8567 43.587 99.5993C43.5657 99.5886 43.5549 99.5886 43.5334 99.5886C38.3856 98.9129 33.4738 97.4651 28.9376 95.3524C28.5618 95.1808 28.1865 94.9984 27.8116 94.8161C20.422 91.1591 14.0732 85.711 9.32211 79.051C8.915 78.4719 8.50736 77.8928 8.12064 77.2922C7.15585 75.8337 6.27655 74.3215 5.48272 72.7665C1.97579 65.9349 0.00268555 58.2025 0.00268555 49.9982C0.00268555 22.3825 22.3847 0.000389099 50.0004 0.000389099C77.6166 0.000389099 99.9987 22.3825 99.9987 49.9982Z" fill="#F7F5FF"/>
  <path d="M86.5288 84.1384C86.4215 84.2671 86.3143 84.3861 86.1963 84.5041C86.0462 84.6639 85.8853 84.8258 85.7352 84.9749C76.6622 94.2409 64.0074 100 50.001 100C47.8347 100 45.6789 99.8606 43.588 99.6032C43.5662 99.5925 43.5558 99.5925 43.534 99.5925C38.3862 98.9168 33.4743 97.4701 28.9382 95.3563C29.3671 77.2425 29.1845 61.3916 29.1845 61.0924C29.3562 60.716 37.7427 58.5603 48.9072 58.1968C66.4741 57.638 81.3167 67.5475 86.5288 84.1384Z" fill="#F74D76"/>
  <path d="M43.5879 99.6035C43.5661 99.5928 43.5557 99.5928 43.5338 99.5928C38.3861 98.9171 33.4742 97.4704 28.938 95.3566C28.5627 95.1861 28.1869 95.0027 27.812 94.8204C20.4224 91.1644 14.0736 85.7163 9.32252 79.0564C18.9533 65.8534 26.8254 62.0032 29.1844 61.0927C29.6674 60.8986 29.9141 60.8353 29.9141 60.8353L43.5879 99.6035Z" fill="#F74D76"/>
  <path d="M50.1948 28.8068C50.1948 28.8068 61.7387 29.3581 62.3923 18.2871C63.0881 6.50082 52.183 5.37152 47.5522 10.1364C42.9217 14.9014 43.779 19.7488 43.779 19.7488C43.779 19.7488 40.5511 16.8393 37.03 20.4127C34.4456 23.0348 35.7791 27.3236 35.7791 27.3236C35.7791 27.3236 29.8252 27.0941 30.3808 32.2923C30.935 37.4915 34.6539 40.1309 34.6539 40.1309L50.1948 28.8068Z" fill="#FFAF45"/>
  <path d="M39.6409 49.191L40.8406 61.4567C40.8406 61.4567 43.3978 64.7663 50.6305 64.6473C56.0187 64.5593 57.7787 63.1662 57.7787 63.1662L56.4252 57.0275L55.098 51.041L41.862 49.4591L39.6409 49.191Z" fill="#FC8165"/>
  <path d="M41.862 49.4583C41.9256 49.7897 42.0915 50.1725 42.3341 50.6058C45.6783 56.4646 53.3112 57.0523 56.4252 57.0266L55.098 51.0401L41.862 49.4583Z" fill="black"/>
  <path d="M55.098 22.8133C55.098 22.8133 63.0399 37.5628 61.3383 46.3558C59.6366 55.1489 51.6941 54.44 46.8722 53.1638C42.0504 51.8875 39.6395 49.1925 39.6395 49.1925C39.6395 49.1925 35.3844 51.036 32.1226 47.2073C28.8609 43.3776 30.279 38.5558 32.6899 37.2796C35.1012 36.0034 38.2214 37.5628 38.2214 37.5628L35.5264 33.3083C35.5264 33.3083 43.4685 9.90844 55.098 22.8133Z" fill="#FC8165"/>
  <path d="M38.3669 44.2773C38.276 44.2773 38.1834 44.2548 38.0984 44.2055L33.2346 41.3817C32.9787 41.2337 32.8911 40.9055 33.0398 40.6492C33.1881 40.3929 33.5152 40.3039 33.7729 40.4541L38.6366 43.2767C38.8926 43.4258 38.9801 43.754 38.8315 44.0103C38.7322 44.1819 38.5516 44.2773 38.3669 44.2773Z" fill="black"/>
  <path d="M34.3971 44.7031C34.2039 44.7031 34.0167 44.598 33.9212 44.4146C33.7842 44.1519 33.8859 43.828 34.1483 43.6907L36.6233 42.3984C36.8851 42.2622 37.2094 42.362 37.3468 42.6258C37.4833 42.8885 37.3819 43.2124 37.1197 43.3497L34.6447 44.642C34.5654 44.6838 34.4808 44.7031 34.3971 44.7031Z" fill="black"/>
  <path d="M57.2491 28.5957C57.1456 28.5957 57.0418 28.5657 56.95 28.5045C55.5809 27.5812 54.3216 28.4563 54.2693 28.4949C54.0297 28.6654 53.6953 28.6118 53.5219 28.3726C53.3497 28.1324 53.4012 27.7999 53.6396 27.6262C53.7163 27.5704 55.5479 26.2663 57.5491 27.6144C57.7945 27.7806 57.8595 28.1131 57.694 28.3587C57.5906 28.5131 57.4213 28.5957 57.2491 28.5957Z" fill="black"/>
  <path d="M55.6032 42.5605C55.5693 42.5605 55.5354 42.5584 55.5006 42.5509C55.2098 42.4941 55.0201 42.2131 55.0762 41.9224C55.9614 37.3688 53.3071 34.3649 53.2802 34.3359C53.0817 34.116 53.0985 33.7771 53.3176 33.5787C53.5362 33.3793 53.8751 33.3964 54.0738 33.6141C54.1982 33.7514 57.1202 37.0267 56.129 42.1273C56.0791 42.3825 55.8546 42.5605 55.6032 42.5605Z" fill="black"/>
  <path d="M57.2575 35.8359C56.9718 35.8359 56.7343 35.6107 56.7221 35.3222L56.5973 32.3955C56.5848 32.0995 56.8139 31.8496 57.1096 31.8367C57.4008 31.8239 57.6559 32.0534 57.6685 32.3494L57.7937 35.2761C57.8063 35.5721 57.5768 35.8231 57.281 35.8349C57.2731 35.8359 57.2651 35.8359 57.2575 35.8359Z" fill="black"/>
  <path d="M49.2048 36.6055C48.9195 36.6055 48.682 36.3803 48.6699 36.0928L48.5455 33.1651C48.5329 32.8691 48.762 32.6191 49.0578 32.6063C49.3657 32.587 49.6041 32.8229 49.6166 33.1189L49.741 36.0467C49.7536 36.3427 49.5245 36.5926 49.2287 36.6055C49.2208 36.6055 49.2128 36.6055 49.2048 36.6055Z" fill="black"/>
  <path d="M56.7285 26.1536C56.7285 26.1536 55.1554 23.8178 52.093 24.0966C49.0311 24.3744 47.4555 26.7049 47.4555 26.7049C47.4555 26.7049 49.3022 31.7261 45.4086 34.8705C41.5159 38.015 38.2215 37.5635 38.2215 37.5635L35.0984 36.7838L32.4528 32.5905L40.2629 22.3271L50.9799 15.2575L57.25 19.9216L56.7285 26.1536Z" fill="#FFAF45"/>
  <path d="M53.0544 45.7051C52.0008 45.7051 50.168 45.4026 49.0411 43.5055C48.8899 43.2513 48.9736 42.921 49.2279 42.7708C49.4822 42.6175 49.8119 42.7033 49.9627 42.9574C51.1915 45.0251 53.5617 44.6058 53.6619 44.5865C53.9542 44.5318 54.2333 44.7227 54.289 45.0133C54.3443 45.3029 54.1557 45.5828 53.8654 45.6397C53.8265 45.6472 53.5144 45.7051 53.0544 45.7051Z" fill="black"/>
  <path d="M60.4857 30.5587C58.195 30.5587 56.3316 32.4934 56.3316 34.8711C56.3316 37.2487 58.195 39.1834 60.4857 39.1834C62.776 39.1834 64.6394 37.2487 64.6394 34.8711C64.6394 32.4934 62.776 30.5587 60.4857 30.5587ZM60.4857 40.2559C57.6035 40.2559 55.2591 37.8407 55.2591 34.8711C55.2591 31.9014 57.6035 29.4863 60.4857 29.4863C63.3675 29.4863 65.7118 31.9014 65.7118 34.8711C65.7118 37.8407 63.3675 40.2559 60.4857 40.2559Z" fill="#80BAFF"/>
  <path d="M48.0709 31.7569C45.6931 31.7569 43.7585 33.6916 43.7585 36.0692C43.7585 38.4479 45.6931 40.3826 48.0709 40.3826C50.4487 40.3826 52.3838 38.4479 52.3838 36.0692C52.3838 33.6916 50.4487 31.7569 48.0709 31.7569ZM48.0709 41.4551C45.1016 41.4551 42.686 39.0388 42.686 36.0692C42.686 33.1007 45.1016 30.6844 48.0709 30.6844C51.0406 30.6844 53.4562 33.1007 53.4562 36.0692C53.4562 39.0388 51.0406 41.4551 48.0709 41.4551Z" fill="#80BAFF"/>
  <path d="M52.3985 36.0449C52.122 36.0449 51.8874 35.8326 51.8643 35.5527C51.8401 35.2567 52.0599 34.9982 52.3548 34.9735L56.1462 34.6636C56.4554 34.6486 56.7009 34.8588 56.7247 35.1537C56.749 35.4497 56.5291 35.7082 56.2341 35.7328L52.4429 36.0428C52.4278 36.0438 52.4131 36.0449 52.3985 36.0449Z" fill="#80BAFF"/>
  <path d="M35.0975 37.3203C34.9661 37.3203 34.8336 37.272 34.7302 37.1744C34.5144 36.9718 34.5044 36.6318 34.7072 36.4162C37.5898 33.3501 43.2281 36.1846 43.4669 36.3068C43.7304 36.4409 43.8343 36.7648 43.6994 37.0275C43.5653 37.2914 43.2411 37.3954 42.9785 37.2613C42.9269 37.2345 37.8215 34.6703 35.4885 37.1519C35.3825 37.2635 35.24 37.3203 35.0975 37.3203Z" fill="#80BAFF"/>
  <path d="M50.7772 64.7539C47.3127 64.7539 43.2877 63.8756 39.3786 61.0057C39.1399 60.8298 39.0887 60.4941 39.2643 60.256C39.4386 60.0158 39.7737 59.9654 40.0133 60.1402C49.5003 67.1069 59.7021 61.677 59.8035 61.6213C60.0632 61.4775 60.3891 61.5741 60.5316 61.8347C60.6736 62.0942 60.5776 62.4202 60.3179 62.5618C60.2517 62.5983 56.2023 64.7539 50.7772 64.7539Z" fill="white"/>
  <path d="M45.4081 30.3359C45.3105 30.3359 45.2121 30.3091 45.1237 30.2534C44.8728 30.0968 44.7969 29.7654 44.9541 29.5144C46.4211 27.1733 48.7077 27.3535 49.7096 27.7739C49.9828 27.8886 50.1111 28.2028 49.9962 28.4763C49.8823 28.7487 49.5698 28.8774 49.2966 28.7637C49.212 28.7294 47.2058 27.9411 45.8631 30.0839C45.7609 30.2469 45.5866 30.3359 45.4081 30.3359Z" fill="black"/>
  <path d="M79.5364 90.3321C79.2468 90.5573 78.9572 90.7718 78.6559 90.9648L76.5442 86.6965C76.4155 86.4391 76.5228 86.1173 76.7909 85.9779C77.059 85.8492 77.37 85.9565 77.5094 86.2246L79.5364 90.3321Z" fill="white"/>
  <path d="M47.897 76.7578C28.4073 76.7578 17.567 69.7204 17.4518 69.6431C17.2059 69.4791 17.138 69.1477 17.3023 68.8999C17.4657 68.6544 17.7988 68.5879 18.045 68.7487C18.1661 68.8302 30.4131 76.7557 52.3695 75.5631C70.9577 74.5464 75.5574 67.4403 75.6025 67.3685C75.7569 67.1175 76.0862 67.0382 76.3382 67.1915C76.5902 67.346 76.6707 67.6741 76.5184 67.9261C76.3296 68.2382 71.6644 75.5824 52.4281 76.6334C50.8706 76.7181 49.3591 76.7578 47.897 76.7578Z" fill="white"/>
  <path d="M50.2212 88.9961C27.3113 88.9961 11.1683 77.6088 11.0045 77.4919C10.7645 77.3192 10.7087 76.9835 10.8814 76.7444C11.0539 76.502 11.3891 76.4473 11.63 76.62C11.7942 76.739 28.3088 88.3902 51.6216 87.9097C74.7928 87.4314 83.0002 76.8409 83.0807 76.7347C83.2576 76.4988 83.5933 76.4505 83.8314 76.6264C84.0673 76.8033 84.1167 77.139 83.9397 77.376C83.6019 77.8297 75.388 88.492 51.6438 88.9822C51.1671 88.9907 50.6917 88.9961 50.2212 88.9961Z" fill="white"/>
</svg>